<svg width="872" height="1191" viewBox="0 0 872 1191" fill="none" xmlns="http://www.w3.org/2000/svg">
<path d="M674.769 69.4365C722.435 84.4129 765.544 121.981 772.088 171.136C781.735 174.978 784.571 187.16 786.07 197.542C790.215 226.254 794.362 254.969 798.507 283.681C800.031 294.228 801.558 304.858 800.989 315.5C800.343 327.618 796.996 339.467 796.419 351.587C794.704 387.744 817.302 419.98 839.427 448.421C841.335 450.875 843.359 453.683 843.013 456.788C842.721 459.412 840.793 461.514 838.897 463.328C831.088 470.792 822.026 476.912 812.216 481.339C809.286 488.708 807.613 499.691 810.17 507.203C810.802 509.064 811.614 510.984 811.302 512.927C811.05 514.486 810.106 515.827 809.187 517.107L799.595 528.451C798.17 530.435 797.861 533.062 798.901 535.278C800.207 538.056 802.093 541.041 801.127 543.955C800.757 545.076 799.995 546.015 799.249 546.926C796.682 550.062 794.116 553.197 791.549 556.333C791.311 570.974 796.952 587.725 792.446 601.642C789.077 612.046 779.215 619.245 768.78 622.143C758.346 625.044 747.301 624.318 736.527 623.317C712.903 621.123 689.392 617.717 666.107 613.111C660.452 613.938 656.148 619.899 651.562 623.351C636.618 634.605 623.989 648.994 614.731 665.354C612.37 669.526 610.976 674.294 611.486 679.076C613.198 695.105 630.679 703.224 643.518 713.321C666.994 731.782 677.337 763.001 679.518 793.007C681.175 815.811 695.419 839.621 713.505 853.326C731.59 867.031 752.956 876.186 769.625 891.621C798.642 918.488 809.217 961.045 806.862 1000.78C805.73 1019.88 801.972 1038.82 802.198 1057.96C802.425 1077.09 807.246 1097.19 820.601 1110.74C833.957 1124.28 857.374 1128.64 872 1116.52C865.21 1136.2 841.724 1145.26 821.203 1143.48C800.68 1141.7 781.818 1131.93 762.385 1125.02C723.92 1111.34 680.625 1111.99 646.15 1134.01C655.51 1142.42 666.546 1148.94 674.896 1158.37C683.246 1167.8 686.658 1179.41 681.6 1191C670.823 1172.25 648.408 1163.86 627.23 1160.55C586.854 1154.23 545.777 1161.2 504.987 1163.53C480.197 1164.94 452.492 1163.51 434.97 1145.7C426.391 1136.99 421.429 1125.39 415.114 1114.88C403.396 1095.38 386.329 1078.99 365.894 1069.33C331.794 1053.22 292.064 1056.79 255.377 1048.31C187.309 1032.56 132.04 970.96 123.105 900.871C116.627 922.381 105.323 939.836 86.6962 952.091C110.296 930.846 113.94 893.873 105.182 863.16C96.4236 832.447 77.612 805.901 61.4925 778.413C45.3702 750.925 31.3464 720.173 33.8645 688.309C38.5088 629.535 97.2382 585.375 99.4995 526.458C100.477 500.974 90.5314 476.507 86.1163 451.397C79.0146 411.009 87.6487 366.388 115.426 336.516C131.291 319.452 152.229 308.1 169.227 292.19C211.124 252.973 224.27 191.464 258.69 145.392C283.77 111.82 320.429 87.663 360.576 76.6941C391.109 68.3521 404.829 55.564 425.805 45.562C461.189 28.6908 498.078 24.8566 536.613 31.6587C573.057 38.092 592.716 58.3614 644.766 63.6712C654.919 64.7024 665.025 66.3736 674.769 69.4365Z" fill="#2B2928" style="fill:#2B2928;fill:color(display-p3 0.1686 0.1608 0.1569);fill-opacity:1;"/>
<mask id="mask0_566_15338" style="mask-type:luminance" maskUnits="userSpaceOnUse" x="33" y="28" width="839" height="1163">
<path d="M674.769 69.4365C722.435 84.4129 765.544 121.981 772.088 171.136C781.735 174.978 784.571 187.16 786.07 197.542C790.215 226.254 794.362 254.969 798.507 283.681C800.031 294.228 801.558 304.858 800.989 315.5C800.343 327.618 796.996 339.467 796.419 351.587C794.704 387.744 817.302 419.98 839.427 448.421C841.335 450.875 843.359 453.683 843.013 456.788C842.721 459.412 840.793 461.514 838.897 463.328C831.088 470.792 822.026 476.912 812.216 481.339C809.286 488.708 807.613 499.691 810.17 507.203C810.802 509.064 811.614 510.984 811.302 512.927C811.05 514.486 810.106 515.827 809.187 517.107L799.595 528.451C798.17 530.435 797.861 533.062 798.901 535.278C800.207 538.056 802.093 541.041 801.127 543.955C800.757 545.076 799.995 546.015 799.249 546.926C796.682 550.062 794.116 553.197 791.549 556.333C791.311 570.974 796.952 587.725 792.446 601.642C789.077 612.046 779.215 619.245 768.78 622.143C758.346 625.044 747.301 624.318 736.527 623.317C712.903 621.123 689.392 617.717 666.107 613.111C660.452 613.938 656.148 619.899 651.562 623.351C636.618 634.605 623.989 648.994 614.731 665.354C612.37 669.526 610.976 674.294 611.486 679.076C613.198 695.105 630.679 703.224 643.518 713.321C666.994 731.782 677.337 763.001 679.518 793.007C681.175 815.811 695.419 839.621 713.505 853.326C731.59 867.031 752.956 876.186 769.625 891.621C798.642 918.488 809.217 961.045 806.862 1000.78C805.73 1019.88 801.972 1038.82 802.198 1057.96C802.425 1077.09 807.246 1097.19 820.601 1110.74C833.957 1124.28 857.374 1128.64 872 1116.52C865.21 1136.2 841.724 1145.26 821.203 1143.48C800.68 1141.7 781.818 1131.93 762.385 1125.02C723.92 1111.34 680.625 1111.99 646.15 1134.01C655.51 1142.42 666.546 1148.94 674.896 1158.37C683.246 1167.8 686.658 1179.41 681.6 1191C670.823 1172.25 648.408 1163.86 627.23 1160.55C586.854 1154.23 545.777 1161.2 504.987 1163.53C480.197 1164.94 452.492 1163.51 434.97 1145.7C426.391 1136.99 421.429 1125.39 415.114 1114.88C403.396 1095.38 386.329 1078.99 365.894 1069.33C331.794 1053.22 292.064 1056.79 255.377 1048.31C187.309 1032.56 132.04 970.96 123.105 900.871C116.627 922.381 105.323 939.836 86.6962 952.091C110.296 930.846 113.94 893.873 105.182 863.16C96.4236 832.447 77.612 805.901 61.4925 778.413C45.3702 750.925 31.3464 720.173 33.8645 688.309C38.5088 629.535 97.2382 585.375 99.4995 526.458C100.477 500.974 90.5314 476.507 86.1163 451.397C79.0146 411.009 87.6487 366.388 115.426 336.516C131.291 319.452 152.229 308.1 169.227 292.19C211.124 252.973 224.27 191.464 258.69 145.392C283.77 111.82 320.429 87.663 360.576 76.6941C391.109 68.3521 404.829 55.564 425.805 45.562C461.189 28.6908 498.078 24.8566 536.613 31.6587C573.057 38.092 592.716 58.3614 644.766 63.6712C654.919 64.7024 665.025 66.3736 674.769 69.4365Z" fill="white" style="fill:white;fill-opacity:1;"/>
</mask>
<g mask="url(#mask0_566_15338)">
<path d="M105.419 599.239C90.4923 607.052 72.9453 609.618 56.4447 606.401C39.9441 603.182 24.595 594.2 13.6084 581.331C44.8286 566.541 80.4086 575.227 105.419 599.239Z" fill="#E1B8A4" style="fill:#E1B8A4;fill:color(display-p3 0.8824 0.7216 0.6431);fill-opacity:1;"/>
<mask id="mask1_566_15338" style="mask-type:luminance" maskUnits="userSpaceOnUse" x="13" y="574" width="93" height="34">
<path d="M105.419 599.237C90.492 607.05 72.945 609.616 56.4445 606.399C39.9439 603.18 24.5947 594.198 13.6082 581.329C44.8283 566.539 80.4084 575.225 105.419 599.237Z" fill="white" style="fill:white;fill-opacity:1;"/>
</mask>
<g mask="url(#mask1_566_15338)">
<path d="M12.9482 581.798C44.3948 580.331 75.245 589.659 105.375 598.89" stroke="#4D6C85" style="stroke:#4D6C85;stroke:color(display-p3 0.3020 0.4235 0.5216);stroke-opacity:1;" stroke-width="0.5" stroke-miterlimit="10"/>
<path d="M27.7092 595.36C34.6894 592.325 41.2913 588.399 47.305 583.701" stroke="#4D6C85" style="stroke:#4D6C85;stroke:color(display-p3 0.3020 0.4235 0.5216);stroke-opacity:1;" stroke-width="0.5" stroke-miterlimit="10"/>
</g>
<mask id="mask2_566_15338" style="mask-type:luminance" maskUnits="userSpaceOnUse" x="13" y="574" width="93" height="34">
<path d="M105.419 599.237C90.492 607.05 72.945 609.616 56.4445 606.399C39.9439 603.18 24.5947 594.198 13.6082 581.329C44.8283 566.539 80.4084 575.225 105.419 599.237Z" fill="white" style="fill:white;fill-opacity:1;"/>
</mask>
<g mask="url(#mask2_566_15338)">
<path d="M56.8894 573.961C61.379 578.125 65.333 582.879 68.627 588.063" stroke="#4D6C85" style="stroke:#4D6C85;stroke:color(display-p3 0.3020 0.4235 0.5216);stroke-opacity:1;" stroke-width="0.5" stroke-miterlimit="10"/>
</g>
<path d="M141.077 509.43C136.802 509.958 133.282 512.973 130.153 515.966C118.46 527.159 108.136 540.28 102.683 555.605C97.2324 570.931 97.1303 588.71 104.958 602.943C134.455 583.862 144.81 544.662 141.077 509.43Z" fill="#6B96AF" style="fill:#6B96AF;fill:color(display-p3 0.4196 0.5882 0.6863);fill-opacity:1;"/>
<mask id="mask3_566_15338" style="mask-type:luminance" maskUnits="userSpaceOnUse" x="98" y="509" width="44" height="94">
<path d="M141.077 509.432C136.803 509.96 133.282 512.975 130.154 515.968C118.46 527.161 108.136 540.281 102.683 555.607C97.2327 570.933 97.1305 588.712 104.958 602.945C134.456 583.864 144.81 544.663 141.077 509.432Z" fill="white" style="fill:white;fill-opacity:1;"/>
</mask>
<g mask="url(#mask3_566_15338)">
<path d="M104.503 602.132C117.29 571.783 129.013 540.086 141.077 509.432" stroke="#4D6C85" style="stroke:#4D6C85;stroke:color(display-p3 0.3020 0.4235 0.5216);stroke-opacity:1;" stroke-width="0.5" stroke-miterlimit="10"/>
</g>
<mask id="mask4_566_15338" style="mask-type:luminance" maskUnits="userSpaceOnUse" x="98" y="509" width="44" height="94">
<path d="M141.077 509.432C136.803 509.96 133.282 512.975 130.154 515.968C118.46 527.161 108.136 540.281 102.683 555.607C97.2327 570.933 97.1305 588.712 104.958 602.945C134.456 583.864 144.81 544.663 141.077 509.432Z" fill="white" style="fill:white;fill-opacity:1;"/>
</mask>
<g mask="url(#mask4_566_15338)">
<path d="M120.711 562.715C116.575 554.032 113.559 544.798 111.77 535.33" stroke="#4D6C85" style="stroke:#4D6C85;stroke:color(display-p3 0.3020 0.4235 0.5216);stroke-opacity:1;" stroke-width="0.5" stroke-miterlimit="10"/>
</g>
<mask id="mask5_566_15338" style="mask-type:luminance" maskUnits="userSpaceOnUse" x="98" y="509" width="44" height="94">
<path d="M141.077 509.432C136.803 509.96 133.282 512.975 130.154 515.968C118.46 527.161 108.136 540.281 102.683 555.607C97.2327 570.933 97.1305 588.712 104.958 602.945C134.456 583.864 144.81 544.663 141.077 509.432Z" fill="white" style="fill:white;fill-opacity:1;"/>
</mask>
<g mask="url(#mask5_566_15338)">
<path d="M127.622 544.108C133.102 542.426 139.575 538.915 143.995 535.227" stroke="#4D6C85" style="stroke:#4D6C85;stroke:color(display-p3 0.3020 0.4235 0.5216);stroke-opacity:1;" stroke-width="0.5" stroke-miterlimit="10"/>
</g>
<path d="M19.9502 623.524C34.6146 639.283 53.244 651.535 73.9194 657.082C94.5948 662.63 117.308 661.188 136.473 651.577C124.122 633.364 107.128 619.067 86.1374 613.017C65.1445 606.969 39.9243 614.624 19.9502 623.524Z" fill="#4D6C85" style="fill:#4D6C85;fill:color(display-p3 0.3020 0.4235 0.5216);fill-opacity:1;"/>
<mask id="mask6_566_15338" style="mask-type:luminance" maskUnits="userSpaceOnUse" x="19" y="610" width="118" height="51">
<path d="M19.9502 623.522C34.6146 639.281 53.244 651.533 73.9194 657.08C94.5948 662.628 117.308 661.186 136.473 651.575C124.122 633.362 107.128 619.065 86.1374 613.015C65.1445 606.967 39.9243 614.622 19.9502 623.522Z" fill="white" style="fill:white;fill-opacity:1;"/>
</mask>
<g mask="url(#mask6_566_15338)">
<path d="M134.72 650.88C98.4935 637.79 58.1588 627.998 19.9502 623.523" stroke="#6B96AF" style="stroke:#6B96AF;stroke:color(display-p3 0.4196 0.5882 0.6863);stroke-opacity:1;" stroke-width="0.5" stroke-miterlimit="10"/>
</g>
<mask id="mask7_566_15338" style="mask-type:luminance" maskUnits="userSpaceOnUse" x="19" y="610" width="118" height="51">
<path d="M19.9502 623.522C34.6146 639.281 53.244 651.533 73.9194 657.08C94.5948 662.628 117.308 661.186 136.473 651.575C124.122 633.362 107.128 619.065 86.1374 613.015C65.1445 606.967 39.9243 614.622 19.9502 623.522Z" fill="white" style="fill:white;fill-opacity:1;"/>
</mask>
<g mask="url(#mask7_566_15338)">
<path d="M55.3368 629.368C50.0023 622.868 43.7152 617.167 36.7461 612.514" stroke="#6B96AF" style="stroke:#6B96AF;stroke:color(display-p3 0.4196 0.5882 0.6863);stroke-opacity:1;" stroke-width="0.5" stroke-miterlimit="10"/>
</g>
<mask id="mask8_566_15338" style="mask-type:luminance" maskUnits="userSpaceOnUse" x="19" y="610" width="118" height="51">
<path d="M19.9502 623.522C34.6146 639.281 53.244 651.533 73.9194 657.08C94.5948 662.628 117.308 661.186 136.473 651.575C124.122 633.362 107.128 619.065 86.1374 613.015C65.1445 606.967 39.9243 614.622 19.9502 623.522Z" fill="white" style="fill:white;fill-opacity:1;"/>
</mask>
<g mask="url(#mask8_566_15338)">
<path d="M91.2151 637.26C80.1788 644.051 68.154 649.187 55.6516 652.454" stroke="#6B96AF" style="stroke:#6B96AF;stroke:color(display-p3 0.4196 0.5882 0.6863);stroke-opacity:1;" stroke-width="0.5" stroke-miterlimit="10"/>
</g>
<path d="M55.6055 749.356C67.4038 768.907 84.0673 785.7 104.287 795.998C124.507 806.297 148.344 809.804 170.259 804.069C161.385 782.486 146.856 763.936 126.415 753.048C105.974 742.16 78.2081 744.535 55.6055 749.356Z" fill="#4D6C85" style="fill:#4D6C85;fill:color(display-p3 0.3020 0.4235 0.5216);fill-opacity:1;"/>
<mask id="mask9_566_15338" style="mask-type:luminance" maskUnits="userSpaceOnUse" x="55" y="745" width="116" height="62">
<path d="M55.606 749.356C67.4043 768.907 84.0678 785.7 104.288 795.998C124.507 806.297 148.344 809.804 170.259 804.069C161.385 782.486 146.856 763.936 126.415 753.048C105.975 742.16 78.2086 744.535 55.606 749.356Z" fill="white" style="fill:white;fill-opacity:1;"/>
</mask>
<g mask="url(#mask9_566_15338)">
<path d="M168.597 802.962C133.89 781.427 94.2205 762.404 55.606 749.355" stroke="#6B96AF" style="stroke:#6B96AF;stroke:color(display-p3 0.4196 0.5882 0.6863);stroke-opacity:1;" stroke-width="0.5" stroke-miterlimit="10"/>
</g>
<mask id="mask10_566_15338" style="mask-type:luminance" maskUnits="userSpaceOnUse" x="55" y="745" width="116" height="62">
<path d="M55.606 749.356C67.4043 768.907 84.0678 785.7 104.288 795.998C124.507 806.297 148.344 809.804 170.259 804.069C161.385 782.486 146.856 763.936 126.415 753.048C105.975 742.16 78.2086 744.535 55.606 749.356Z" fill="white" style="fill:white;fill-opacity:1;"/>
</mask>
<g mask="url(#mask10_566_15338)">
<path d="M91.0007 763.203C86.8728 755.294 81.5852 748.005 75.3699 741.65" stroke="#6B96AF" style="stroke:#6B96AF;stroke:color(display-p3 0.4196 0.5882 0.6863);stroke-opacity:1;" stroke-width="0.5" stroke-miterlimit="10"/>
</g>
<mask id="mask11_566_15338" style="mask-type:luminance" maskUnits="userSpaceOnUse" x="55" y="745" width="116" height="62">
<path d="M55.606 749.356C67.4043 768.907 84.0678 785.7 104.288 795.998C124.507 806.297 148.344 809.804 170.259 804.069C161.385 782.486 146.856 763.936 126.415 753.048C105.975 742.16 78.2086 744.535 55.606 749.356Z" fill="white" style="fill:white;fill-opacity:1;"/>
</mask>
<g mask="url(#mask11_566_15338)">
<path d="M126.465 779.279C113.576 783.882 100.016 786.557 86.3645 787.185" stroke="#6B96AF" style="stroke:#6B96AF;stroke:color(display-p3 0.4196 0.5882 0.6863);stroke-opacity:1;" stroke-width="0.5" stroke-miterlimit="10"/>
</g>
<path d="M138.515 649.13C135.646 628.148 141.751 606.062 154.965 589.635C168.18 573.208 188.309 562.678 209.191 561.27C209.862 581.933 203.978 601.702 191.578 618.129C179.178 634.553 157.972 642.842 138.515 649.13Z" fill="#E1B8A4" style="fill:#E1B8A4;fill:color(display-p3 0.8824 0.7216 0.6431);fill-opacity:1;"/>
<mask id="mask12_566_15338" style="mask-type:luminance" maskUnits="userSpaceOnUse" x="137" y="561" width="73" height="89">
<path d="M138.515 649.13C135.646 628.148 141.751 606.062 154.966 589.635C168.18 573.208 188.309 562.678 209.192 561.27C209.863 581.933 203.979 601.702 191.578 618.129C179.178 634.553 157.972 642.842 138.515 649.13Z" fill="white" style="fill:white;fill-opacity:1;"/>
</mask>
<g mask="url(#mask12_566_15338)">
<path d="M210.782 560.629C190.612 592.952 166.278 622.608 138.589 648.609" stroke="#4D6C85" style="stroke:#4D6C85;stroke:color(display-p3 0.3020 0.4235 0.5216);stroke-opacity:1;" stroke-width="0.5" stroke-miterlimit="10"/>
<path d="M186.87 565.023C186.702 574.419 187.317 583.828 188.709 593.118" stroke="#4D6C85" style="stroke:#4D6C85;stroke:color(display-p3 0.3020 0.4235 0.5216);stroke-opacity:1;" stroke-width="0.5" stroke-miterlimit="10"/>
<path d="M173.125 612.537C181.633 614.169 190.308 614.901 198.967 614.723" stroke="#4D6C85" style="stroke:#4D6C85;stroke:color(display-p3 0.3020 0.4235 0.5216);stroke-opacity:1;" stroke-width="0.5" stroke-miterlimit="10"/>
</g>
<path d="M166.197 735.165C165.046 712.029 173.975 688.562 190.158 672.18C206.341 655.801 229.53 646.763 252.389 647.928C248.233 670.16 241.568 693.344 227.29 710.752C213.01 728.159 188.46 737.194 166.197 735.165Z" fill="#6B96AF" style="fill:#6B96AF;fill:color(display-p3 0.4196 0.5882 0.6863);fill-opacity:1;"/>
<mask id="mask13_566_15338" style="mask-type:luminance" maskUnits="userSpaceOnUse" x="166" y="647" width="87" height="89">
<path d="M166.197 735.162C165.046 712.025 173.975 688.558 190.158 672.176C206.341 655.797 229.529 646.759 252.389 647.925C248.233 670.156 241.568 693.34 227.29 710.748C213.009 728.155 188.46 737.19 166.197 735.162Z" fill="white" style="fill:white;fill-opacity:1;"/>
</mask>
<g mask="url(#mask13_566_15338)">
<path d="M253.568 646.646C227.489 678.203 197.967 706.843 165.708 731.877" stroke="#4D6C85" style="stroke:#4D6C85;stroke:color(display-p3 0.3020 0.4235 0.5216);stroke-opacity:1;" stroke-width="0.5" stroke-miterlimit="10"/>
</g>
<mask id="mask14_566_15338" style="mask-type:luminance" maskUnits="userSpaceOnUse" x="166" y="647" width="87" height="89">
<path d="M166.197 735.162C165.046 712.025 173.975 688.558 190.158 672.176C206.341 655.797 229.529 646.759 252.389 647.925C248.233 670.156 241.568 693.34 227.29 710.748C213.009 728.155 188.46 737.19 166.197 735.162Z" fill="white" style="fill:white;fill-opacity:1;"/>
</mask>
<g mask="url(#mask14_566_15338)">
<path d="M244.279 682.912C236.653 683.057 229.027 683.203 221.4 683.348" stroke="#4D6C85" style="stroke:#4D6C85;stroke:color(display-p3 0.3020 0.4235 0.5216);stroke-opacity:1;" stroke-width="0.5" stroke-miterlimit="10"/>
</g>
<mask id="mask15_566_15338" style="mask-type:luminance" maskUnits="userSpaceOnUse" x="166" y="647" width="87" height="89">
<path d="M166.197 735.162C165.046 712.025 173.975 688.558 190.158 672.176C206.341 655.797 229.529 646.759 252.389 647.925C248.233 670.156 241.568 693.34 227.29 710.748C213.009 728.155 188.46 737.19 166.197 735.162Z" fill="white" style="fill:white;fill-opacity:1;"/>
</mask>
<g mask="url(#mask15_566_15338)">
<path d="M204.536 658.072C201.796 673.306 199.963 688.704 199.046 704.161" stroke="#4D6C85" style="stroke:#4D6C85;stroke:color(display-p3 0.3020 0.4235 0.5216);stroke-opacity:1;" stroke-width="0.5" stroke-miterlimit="10"/>
</g>
<path d="M134.682 970.449C148.996 949.243 172.424 934.585 197.564 931.109C222.704 927.632 249.159 935.393 268.567 951.937C250.169 968.741 228.925 984.685 204.784 990.361C180.649 996.039 152.991 987.351 134.682 970.449Z" fill="#6B96AF" style="fill:#6B96AF;fill:color(display-p3 0.4196 0.5882 0.6863);fill-opacity:1;"/>
<mask id="mask16_566_15338" style="mask-type:luminance" maskUnits="userSpaceOnUse" x="134" y="930" width="135" height="63">
<path d="M134.682 970.453C148.995 949.247 172.424 934.589 197.564 931.113C222.704 927.636 249.158 935.397 268.566 951.941C250.169 968.745 228.925 984.689 204.784 990.364C180.649 996.043 152.991 987.355 134.682 970.453Z" fill="white" style="fill:white;fill-opacity:1;"/>
</mask>
<g mask="url(#mask16_566_15338)">
<path d="M270.458 951.615C226.528 961.771 181.491 967.016 136.43 967.223" stroke="#4D6C85" style="stroke:#4D6C85;stroke:color(display-p3 0.3020 0.4235 0.5216);stroke-opacity:1;" stroke-width="0.5" stroke-miterlimit="10"/>
</g>
<mask id="mask17_566_15338" style="mask-type:luminance" maskUnits="userSpaceOnUse" x="134" y="930" width="135" height="63">
<path d="M134.682 970.453C148.995 949.247 172.424 934.589 197.564 931.113C222.704 927.636 249.158 935.397 268.566 951.941C250.169 968.745 228.925 984.689 204.784 990.364C180.649 996.043 152.991 987.355 134.682 970.453Z" fill="white" style="fill:white;fill-opacity:1;"/>
</mask>
<g mask="url(#mask17_566_15338)">
<path d="M238.233 977.32C231.405 972.273 224.576 967.226 217.748 962.176" stroke="#4D6C85" style="stroke:#4D6C85;stroke:color(display-p3 0.3020 0.4235 0.5216);stroke-opacity:1;" stroke-width="0.5" stroke-miterlimit="10"/>
</g>
<mask id="mask18_566_15338" style="mask-type:luminance" maskUnits="userSpaceOnUse" x="134" y="930" width="135" height="63">
<path d="M134.682 970.453C148.995 949.247 172.424 934.589 197.564 931.113C222.704 927.636 249.158 935.397 268.566 951.941C250.169 968.745 228.925 984.689 204.784 990.364C180.649 996.043 152.991 987.355 134.682 970.453Z" fill="white" style="fill:white;fill-opacity:1;"/>
</mask>
<g mask="url(#mask18_566_15338)">
<path d="M219.603 928.418C207.092 940.007 195.272 952.357 184.222 965.38" stroke="#4D6C85" style="stroke:#4D6C85;stroke:color(display-p3 0.3020 0.4235 0.5216);stroke-opacity:1;" stroke-width="0.5" stroke-miterlimit="10"/>
</g>
<path d="M55.6057 685.922C65.8136 704.688 82.3335 719.863 101.775 728.33C121.219 736.798 143.462 738.505 163.944 733.101C165.245 719.183 157.182 707.435 146.4 698.699C135.618 689.963 122.135 685.408 108.708 682.132C91.5889 677.957 72.0372 679.505 55.6057 685.922Z" fill="#E1B8A4" style="fill:#E1B8A4;fill:color(display-p3 0.8824 0.7216 0.6431);fill-opacity:1;"/>
<mask id="mask19_566_15338" style="mask-type:luminance" maskUnits="userSpaceOnUse" x="55" y="679" width="110" height="58">
<path d="M55.6057 685.926C65.8136 704.692 82.3335 719.866 101.775 728.334C121.219 736.802 143.462 738.509 163.944 733.105C165.245 719.187 157.182 707.439 146.4 698.703C135.618 689.967 122.135 685.411 108.708 682.136C91.5889 677.961 72.0372 679.509 55.6057 685.926Z" fill="white" style="fill:white;fill-opacity:1;"/>
</mask>
<g mask="url(#mask19_566_15338)">
<path d="M163.666 732.796C131.968 709.528 93.1602 693.229 54.8218 685.184" stroke="#4D6C85" style="stroke:#4D6C85;stroke:color(display-p3 0.3020 0.4235 0.5216);stroke-opacity:1;" stroke-width="0.5" stroke-miterlimit="10"/>
</g>
<mask id="mask20_566_15338" style="mask-type:luminance" maskUnits="userSpaceOnUse" x="55" y="679" width="110" height="58">
<path d="M55.6057 685.926C65.8136 704.692 82.3335 719.866 101.775 728.334C121.219 736.802 143.462 738.509 163.944 733.105C165.245 719.187 157.182 707.439 146.4 698.703C135.618 689.967 122.135 685.411 108.708 682.136C91.5889 677.961 72.0372 679.509 55.6057 685.926Z" fill="white" style="fill:white;fill-opacity:1;"/>
</mask>
<g mask="url(#mask20_566_15338)">
<path d="M114.062 703.834C110.665 694.947 105.726 686.67 99.5352 679.49" stroke="#4D6C85" style="stroke:#4D6C85;stroke:color(display-p3 0.3020 0.4235 0.5216);stroke-opacity:1;" stroke-width="0.5" stroke-miterlimit="10"/>
</g>
<mask id="mask21_566_15338" style="mask-type:luminance" maskUnits="userSpaceOnUse" x="55" y="679" width="110" height="58">
<path d="M55.6057 685.926C65.8136 704.692 82.3335 719.866 101.775 728.334C121.219 736.802 143.462 738.509 163.944 733.105C165.245 719.187 157.182 707.439 146.4 698.703C135.618 689.967 122.135 685.411 108.708 682.136C91.5889 677.961 72.0372 679.509 55.6057 685.926Z" fill="white" style="fill:white;fill-opacity:1;"/>
</mask>
<g mask="url(#mask21_566_15338)">
<path d="M90.7168 694.916C83.651 699.284 75.7901 702.33 67.6475 703.853" stroke="#4D6C85" style="stroke:#4D6C85;stroke:color(display-p3 0.3020 0.4235 0.5216);stroke-opacity:1;" stroke-width="0.5" stroke-miterlimit="10"/>
</g>
<path d="M159.604 880.709C147.524 854.954 127.415 831.345 100.402 823.258C81.8227 817.693 61.3737 820.049 43.6831 828.048C44.343 855.094 63.7814 880.902 88.778 890.485C113.775 900.068 134.961 891.192 159.604 880.709Z" fill="#6B96AF" style="fill:#6B96AF;fill:color(display-p3 0.4196 0.5882 0.6863);fill-opacity:1;"/>
<mask id="mask22_566_15338" style="mask-type:luminance" maskUnits="userSpaceOnUse" x="43" y="820" width="117" height="75">
<path d="M159.604 880.711C147.524 854.956 127.415 831.347 100.402 823.259C81.8227 817.695 61.3737 820.051 43.6831 828.05C44.343 855.096 63.7814 880.904 88.778 890.487C113.775 900.07 134.961 891.194 159.604 880.711Z" fill="white" style="fill:white;fill-opacity:1;"/>
</mask>
<g mask="url(#mask22_566_15338)">
<path d="M43.3987 826.754C77.2585 853.076 116.989 871.622 158.754 880.598" stroke="#4D6C85" style="stroke:#4D6C85;stroke:color(display-p3 0.3020 0.4235 0.5216);stroke-opacity:1;" stroke-width="0.5" stroke-miterlimit="10"/>
<path d="M70.7175 819.805C73.9922 829.871 77.7502 841.438 81.0249 851.504" stroke="#4D6C85" style="stroke:#4D6C85;stroke:color(display-p3 0.3020 0.4235 0.5216);stroke-opacity:1;" stroke-width="0.5" stroke-miterlimit="10"/>
<path d="M61.7597 875.103C61.7045 875.648 62.5218 875.721 63.0382 875.567C75.2286 871.887 87.0269 866.87 98.1543 860.633" stroke="#4D6C85" style="stroke:#4D6C85;stroke:color(display-p3 0.3020 0.4235 0.5216);stroke-opacity:1;" stroke-width="0.5" stroke-miterlimit="10"/>
</g>
<path d="M284.512 848.063C263.143 839.712 239.204 838.259 217.005 843.963C194.805 849.667 174.447 862.503 159.604 880.159C169.417 891.882 182.734 900.99 197.917 900.898C213.098 900.806 227.848 895.666 241.538 889.021C259.228 880.43 277.071 866.437 284.512 848.063Z" fill="#4D6C85" style="fill:#4D6C85;fill:color(display-p3 0.3020 0.4235 0.5216);fill-opacity:1;"/>
<mask id="mask23_566_15338" style="mask-type:luminance" maskUnits="userSpaceOnUse" x="159" y="840" width="126" height="61">
<path d="M284.512 848.059C263.143 839.708 239.204 838.255 217.005 843.959C194.805 849.663 174.447 862.499 159.604 880.155C169.417 891.879 182.734 900.986 197.917 900.894C213.098 900.802 227.848 895.662 241.538 889.017C259.228 880.426 277.071 866.433 284.512 848.059Z" fill="white" style="fill:white;fill-opacity:1;"/>
</mask>
<g mask="url(#mask23_566_15338)">
<path d="M159.808 881.291C203.412 880.419 246.775 869.034 285.299 848.34" stroke="#6B96AF" style="stroke:#6B96AF;stroke:color(display-p3 0.4196 0.5882 0.6863);stroke-opacity:1;" stroke-width="0.5" stroke-miterlimit="10"/>
</g>
<mask id="mask24_566_15338" style="mask-type:luminance" maskUnits="userSpaceOnUse" x="159" y="840" width="126" height="61">
<path d="M284.512 848.059C263.143 839.708 239.204 838.255 217.005 843.959C194.805 849.663 174.447 862.499 159.604 880.155C169.417 891.879 182.734 900.986 197.917 900.894C213.098 900.802 227.848 895.662 241.538 889.017C259.228 880.426 277.071 866.433 284.512 848.059Z" fill="white" style="fill:white;fill-opacity:1;"/>
</mask>
<g mask="url(#mask24_566_15338)">
<path d="M242.451 867.068C248.813 871.383 256.273 874.027 263.905 874.673" stroke="#6B96AF" style="stroke:#6B96AF;stroke:color(display-p3 0.4196 0.5882 0.6863);stroke-opacity:1;" stroke-width="0.5" stroke-miterlimit="10"/>
</g>
<mask id="mask25_566_15338" style="mask-type:luminance" maskUnits="userSpaceOnUse" x="159" y="840" width="126" height="61">
<path d="M284.512 848.059C263.143 839.708 239.204 838.255 217.005 843.959C194.805 849.663 174.447 862.499 159.604 880.155C169.417 891.879 182.734 900.986 197.917 900.894C213.098 900.802 227.848 895.662 241.538 889.017C259.228 880.426 277.071 866.433 284.512 848.059Z" fill="white" style="fill:white;fill-opacity:1;"/>
</mask>
<g mask="url(#mask25_566_15338)">
<path d="M210.853 875.39C217.819 862.029 226.448 849.554 236.471 838.355" stroke="#6B96AF" style="stroke:#6B96AF;stroke:color(display-p3 0.4196 0.5882 0.6863);stroke-opacity:1;" stroke-width="0.5" stroke-miterlimit="10"/>
</g>
<path d="M170.449 804.687C178.167 781.83 195.637 762.539 217.466 752.774C239.293 743.01 265.151 742.918 287.047 752.526C279.067 775.372 261.84 793.33 240.008 803.279C218.176 813.225 192.641 813.784 170.449 804.687Z" fill="#E1B8A4" style="fill:#E1B8A4;fill:color(display-p3 0.8824 0.7216 0.6431);fill-opacity:1;"/>
<mask id="mask26_566_15338" style="mask-type:luminance" maskUnits="userSpaceOnUse" x="170" y="745" width="118" height="67">
<path d="M170.449 804.683C178.167 781.826 195.637 762.535 217.466 752.77C239.293 743.006 265.151 742.914 287.047 752.522C279.067 775.368 261.84 793.326 240.008 803.275C218.176 813.221 192.641 813.78 170.449 804.683Z" fill="white" style="fill:white;fill-opacity:1;"/>
</mask>
<g mask="url(#mask26_566_15338)">
<path d="M289.308 751.924C251.033 771.556 211.938 789.551 172.161 805.846" stroke="#4D6C85" style="stroke:#4D6C85;stroke:color(display-p3 0.3020 0.4235 0.5216);stroke-opacity:1;" stroke-width="0.5" stroke-miterlimit="10"/>
<path d="M251.867 742.965C247.474 753.283 244.343 764.148 242.562 775.237" stroke="#4D6C85" style="stroke:#4D6C85;stroke:color(display-p3 0.3020 0.4235 0.5216);stroke-opacity:1;" stroke-width="0.5" stroke-miterlimit="10"/>
<path d="M243.338 802.673C232.02 800.015 221.061 795.787 210.87 790.145" stroke="#4D6C85" style="stroke:#4D6C85;stroke:color(display-p3 0.3020 0.4235 0.5216);stroke-opacity:1;" stroke-width="0.5" stroke-miterlimit="10"/>
</g>
<path d="M134.632 970.499C158.392 904.546 177.308 821.269 168.031 751.697C158.756 682.124 128.237 619.363 78.2109 570.736" stroke="#4D6C85" style="stroke:#4D6C85;stroke:color(display-p3 0.3020 0.4235 0.5216);stroke-opacity:1;" stroke-miterlimit="10"/>
</g>
<mask id="mask27_566_15338" style="mask-type:luminance" maskUnits="userSpaceOnUse" x="33" y="28" width="839" height="1163">
<path d="M674.769 69.4365C722.435 84.4129 765.544 121.981 772.088 171.136C781.735 174.978 784.571 187.16 786.07 197.542C790.215 226.254 794.362 254.969 798.507 283.681C800.031 294.228 801.558 304.858 800.989 315.5C800.343 327.618 796.996 339.467 796.419 351.587C794.704 387.744 817.302 419.98 839.427 448.421C841.335 450.875 843.359 453.683 843.013 456.788C842.721 459.412 840.793 461.514 838.897 463.328C831.088 470.792 822.026 476.912 812.216 481.339C809.286 488.708 807.613 499.691 810.17 507.203C810.802 509.064 811.614 510.984 811.302 512.927C811.05 514.486 810.106 515.827 809.187 517.107L799.595 528.451C798.17 530.435 797.861 533.062 798.901 535.278C800.207 538.056 802.093 541.041 801.127 543.955C800.757 545.076 799.995 546.015 799.249 546.926C796.682 550.062 794.116 553.197 791.549 556.333C791.311 570.974 796.952 587.725 792.446 601.642C789.077 612.046 779.215 619.245 768.78 622.143C758.346 625.044 747.301 624.318 736.527 623.317C712.903 621.123 689.392 617.717 666.107 613.111C660.452 613.938 656.148 619.899 651.562 623.351C636.618 634.605 623.989 648.994 614.731 665.354C612.37 669.526 610.976 674.294 611.486 679.076C613.198 695.105 630.679 703.224 643.518 713.321C666.994 731.782 677.337 763.001 679.518 793.007C681.175 815.811 695.419 839.621 713.505 853.326C731.59 867.031 752.956 876.186 769.625 891.621C798.642 918.488 809.217 961.045 806.862 1000.78C805.73 1019.88 801.972 1038.82 802.198 1057.96C802.425 1077.09 807.246 1097.19 820.601 1110.74C833.957 1124.28 857.374 1128.64 872 1116.52C865.21 1136.2 841.724 1145.26 821.203 1143.48C800.68 1141.7 781.818 1131.93 762.385 1125.02C723.92 1111.34 680.625 1111.99 646.15 1134.01C655.51 1142.42 666.546 1148.94 674.896 1158.37C683.246 1167.8 686.658 1179.41 681.6 1191C670.823 1172.25 648.408 1163.86 627.23 1160.55C586.854 1154.23 545.777 1161.2 504.987 1163.53C480.197 1164.94 452.492 1163.51 434.97 1145.7C426.391 1136.99 421.429 1125.39 415.114 1114.88C403.396 1095.38 386.329 1078.99 365.894 1069.33C331.794 1053.22 292.064 1056.79 255.377 1048.31C187.309 1032.56 132.04 970.96 123.105 900.871C116.627 922.381 105.323 939.836 86.6962 952.091C110.296 930.846 113.94 893.873 105.182 863.16C96.4236 832.447 77.612 805.901 61.4925 778.413C45.3702 750.925 31.3464 720.173 33.8645 688.309C38.5088 629.535 97.2382 585.375 99.4995 526.458C100.477 500.974 90.5314 476.507 86.1163 451.397C79.0146 411.009 87.6487 366.388 115.426 336.516C131.291 319.452 152.229 308.1 169.227 292.19C211.124 252.973 224.27 191.464 258.69 145.392C283.77 111.82 320.429 87.663 360.576 76.6941C391.109 68.3521 404.829 55.564 425.805 45.562C461.189 28.6908 498.078 24.8566 536.613 31.6587C573.057 38.092 592.716 58.3614 644.766 63.6712C654.919 64.7024 665.025 66.3736 674.769 69.4365Z" fill="white" style="fill:white;fill-opacity:1;"/>
</mask>
<g mask="url(#mask27_566_15338)">
<path d="M317.771 1056.69C321.473 1019 341.958 985.051 365.817 955.881C389.676 926.708 417.392 900.81 439.661 870.376C478.491 817.315 499.373 751.049 498.067 685.031" stroke="#4D6C85" style="stroke:#4D6C85;stroke:color(display-p3 0.3020 0.4235 0.5216);stroke-opacity:1;" stroke-miterlimit="10"/>
<path d="M496.524 711.489C490.286 698.145 483.925 684.303 483.591 669.544C483.262 655.021 488.892 640.894 496.786 628.76C507.516 640.506 513.463 653.503 514.452 669.469C515.438 685.438 505.724 698.48 496.524 711.489Z" fill="#4D6C85" style="fill:#4D6C85;fill:color(display-p3 0.3020 0.4235 0.5216);fill-opacity:1;"/>
<mask id="mask28_566_15338" style="mask-type:luminance" maskUnits="userSpaceOnUse" x="483" y="628" width="32" height="84">
<path d="M496.523 711.485C490.286 698.141 483.924 684.299 483.59 669.541C483.262 655.017 488.892 640.89 496.786 628.756C507.516 640.502 513.463 653.499 514.452 669.465C515.437 685.434 505.724 698.476 496.523 711.485Z" fill="white" style="fill:white;fill-opacity:1;"/>
</mask>
<g mask="url(#mask28_566_15338)">
<path d="M496.068 627.693C496.924 655.631 497.084 683.591 496.551 711.535" stroke="#6B96AF" style="stroke:#6B96AF;stroke:color(display-p3 0.4196 0.5882 0.6863);stroke-opacity:1;" stroke-width="0.5" stroke-miterlimit="10"/>
</g>
<mask id="mask29_566_15338" style="mask-type:luminance" maskUnits="userSpaceOnUse" x="483" y="628" width="32" height="84">
<path d="M496.523 711.485C490.286 698.141 483.924 684.299 483.59 669.541C483.262 655.017 488.892 640.89 496.786 628.756C507.516 640.502 513.463 653.499 514.452 669.465C515.437 685.434 505.724 698.476 496.523 711.485Z" fill="white" style="fill:white;fill-opacity:1;"/>
</mask>
<g mask="url(#mask29_566_15338)">
<path d="M497.305 663.552C502.377 659.455 507.052 654.855 511.24 649.842" stroke="#6B96AF" style="stroke:#6B96AF;stroke:color(display-p3 0.4196 0.5882 0.6863);stroke-opacity:1;" stroke-width="0.5" stroke-miterlimit="10"/>
</g>
<mask id="mask30_566_15338" style="mask-type:luminance" maskUnits="userSpaceOnUse" x="483" y="628" width="32" height="84">
<path d="M496.523 711.485C490.286 698.141 483.924 684.299 483.59 669.541C483.262 655.017 488.892 640.89 496.786 628.756C507.516 640.502 513.463 653.499 514.452 669.465C515.437 685.434 505.724 698.476 496.523 711.485Z" fill="white" style="fill:white;fill-opacity:1;"/>
</mask>
<g mask="url(#mask30_566_15338)">
<path d="M483.063 665.453C487.39 670.053 491.984 674.393 496.814 678.445" stroke="#6B96AF" style="stroke:#6B96AF;stroke:color(display-p3 0.4196 0.5882 0.6863);stroke-opacity:1;" stroke-width="0.5" stroke-miterlimit="10"/>
</g>
<path d="M494.522 753.768C480.641 751.074 467.728 743.531 458.475 732.716C449.225 721.9 443.697 707.885 443.051 693.594C471.284 700.259 490.336 724.731 494.522 753.768Z" fill="#E1B8A4" style="fill:#E1B8A4;fill:color(display-p3 0.8824 0.7216 0.6431);fill-opacity:1;"/>
<mask id="mask31_566_15338" style="mask-type:luminance" maskUnits="userSpaceOnUse" x="443" y="693" width="52" height="61">
<path d="M494.522 753.772C480.642 751.078 467.728 743.535 458.475 732.72C449.226 721.904 443.698 707.889 443.052 693.598C471.284 700.263 490.336 724.735 494.522 753.772Z" fill="white" style="fill:white;fill-opacity:1;"/>
</mask>
<g mask="url(#mask31_566_15338)">
<path d="M442.378 693.557C463.912 709.142 479.504 731.55 494.671 753.513" stroke="#4D6C85" style="stroke:#4D6C85;stroke:color(display-p3 0.3020 0.4235 0.5216);stroke-opacity:1;" stroke-width="0.5" stroke-miterlimit="10"/>
<path d="M445.159 710.291C451.33 711.959 457.711 712.84 464.1 712.904" stroke="#4D6C85" style="stroke:#4D6C85;stroke:color(display-p3 0.3020 0.4235 0.5216);stroke-opacity:1;" stroke-width="0.5" stroke-miterlimit="10"/>
</g>
<mask id="mask32_566_15338" style="mask-type:luminance" maskUnits="userSpaceOnUse" x="443" y="693" width="52" height="61">
<path d="M494.522 753.772C480.642 751.078 467.728 743.535 458.475 732.72C449.226 721.904 443.698 707.889 443.052 693.598C471.284 700.263 490.336 724.735 494.522 753.772Z" fill="white" style="fill:white;fill-opacity:1;"/>
</mask>
<g mask="url(#mask32_566_15338)">
<path d="M475.442 711.516C476.268 716.63 476.439 721.853 475.953 727.015" stroke="#4D6C85" style="stroke:#4D6C85;stroke:color(display-p3 0.3020 0.4235 0.5216);stroke-opacity:1;" stroke-width="0.5" stroke-miterlimit="10"/>
</g>
<path d="M571.533 723.073C568.733 720.683 564.84 720.205 561.184 719.965C547.522 719.065 533.465 720.147 520.871 725.577C508.278 731.009 497.269 741.235 493.034 754.409C521.86 761.976 551.995 745.821 571.533 723.073Z" fill="#6B96AF" style="fill:#6B96AF;fill:color(display-p3 0.4196 0.5882 0.6863);fill-opacity:1;"/>
<mask id="mask33_566_15338" style="mask-type:luminance" maskUnits="userSpaceOnUse" x="493" y="719" width="79" height="38">
<path d="M571.533 723.069C568.733 720.679 564.84 720.201 561.184 719.961C547.522 719.061 533.465 720.143 520.871 725.573C508.278 731.005 497.269 741.231 493.034 754.405C521.86 761.973 551.995 745.817 571.533 723.069Z" fill="white" style="fill:white;fill-opacity:1;"/>
</mask>
<g mask="url(#mask33_566_15338)">
<path d="M493.274 753.649C519.366 744.15 545.672 733.201 571.533 723.07" stroke="#4D6C85" style="stroke:#4D6C85;stroke:color(display-p3 0.3020 0.4235 0.5216);stroke-opacity:1;" stroke-width="0.5" stroke-miterlimit="10"/>
</g>
<mask id="mask34_566_15338" style="mask-type:luminance" maskUnits="userSpaceOnUse" x="493" y="719" width="79" height="38">
<path d="M571.533 723.069C568.733 720.679 564.84 720.201 561.184 719.961C547.522 719.061 533.465 720.143 520.871 725.573C508.278 731.005 497.269 741.231 493.034 754.405C521.86 761.973 551.995 745.817 571.533 723.069Z" fill="white" style="fill:white;fill-opacity:1;"/>
</mask>
<g mask="url(#mask34_566_15338)">
<path d="M526.93 741.059C529.884 733.424 533.825 726.178 538.621 719.568" stroke="#4D6C85" style="stroke:#4D6C85;stroke:color(display-p3 0.3020 0.4235 0.5216);stroke-opacity:1;" stroke-width="0.5" stroke-miterlimit="10"/>
</g>
<mask id="mask35_566_15338" style="mask-type:luminance" maskUnits="userSpaceOnUse" x="493" y="719" width="79" height="38">
<path d="M571.533 723.069C568.733 720.679 564.84 720.201 561.184 719.961C547.522 719.061 533.465 720.143 520.871 725.573C508.278 731.005 497.269 741.231 493.034 754.405C521.86 761.973 551.995 745.817 571.533 723.069Z" fill="white" style="fill:white;fill-opacity:1;"/>
</mask>
<g mask="url(#mask35_566_15338)">
<path d="M542.386 734.65C546.594 737.135 552.503 739.186 557.332 739.84" stroke="#4D6C85" style="stroke:#4D6C85;stroke:color(display-p3 0.3020 0.4235 0.5216);stroke-opacity:1;" stroke-width="0.5" stroke-miterlimit="10"/>
</g>
<path d="M564.111 801.757C546.738 795.955 527.794 794.432 510.012 798.789C492.23 803.148 475.732 813.606 465.19 828.739C481.812 837.341 500.351 841.077 518.571 836.966C536.792 832.852 552.674 816.691 564.111 801.757Z" fill="#4D6C85" style="fill:#4D6C85;fill:color(display-p3 0.3020 0.4235 0.5216);fill-opacity:1;"/>
<mask id="mask36_566_15338" style="mask-type:luminance" maskUnits="userSpaceOnUse" x="465" y="796" width="100" height="43">
<path d="M564.111 801.759C546.738 795.957 527.794 794.434 510.012 798.791C492.231 803.15 475.733 813.608 465.191 828.741C481.813 837.343 500.351 841.079 518.572 836.968C536.792 832.854 552.675 816.693 564.111 801.759Z" fill="white" style="fill:white;fill-opacity:1;"/>
</mask>
<g mask="url(#mask36_566_15338)">
<path d="M466.79 828.543C499.302 823.438 533.576 814.16 564.111 801.76" stroke="#6B96AF" style="stroke:#6B96AF;stroke:color(display-p3 0.4196 0.5882 0.6863);stroke-opacity:1;" stroke-width="0.5" stroke-miterlimit="10"/>
</g>
<mask id="mask37_566_15338" style="mask-type:luminance" maskUnits="userSpaceOnUse" x="465" y="796" width="100" height="43">
<path d="M564.111 801.759C546.738 795.957 527.794 794.434 510.012 798.791C492.231 803.15 475.733 813.608 465.191 828.741C481.813 837.343 500.351 841.079 518.572 836.968C536.792 832.854 552.675 816.693 564.111 801.759Z" fill="white" style="fill:white;fill-opacity:1;"/>
</mask>
<g mask="url(#mask37_566_15338)">
<path d="M535.146 811.961C541.776 814.647 548.8 816.34 555.916 816.963" stroke="#6B96AF" style="stroke:#6B96AF;stroke:color(display-p3 0.4196 0.5882 0.6863);stroke-opacity:1;" stroke-width="0.5" stroke-miterlimit="10"/>
</g>
<mask id="mask38_566_15338" style="mask-type:luminance" maskUnits="userSpaceOnUse" x="465" y="796" width="100" height="43">
<path d="M564.111 801.759C546.738 795.957 527.794 794.434 510.012 798.791C492.231 803.15 475.733 813.608 465.191 828.741C481.813 837.343 500.351 841.079 518.572 836.968C536.792 832.854 552.675 816.693 564.111 801.759Z" fill="white" style="fill:white;fill-opacity:1;"/>
</mask>
<g mask="url(#mask38_566_15338)">
<path d="M504.987 820.832C510.551 811.174 517.522 802.349 525.61 794.73" stroke="#6B96AF" style="stroke:#6B96AF;stroke:color(display-p3 0.4196 0.5882 0.6863);stroke-opacity:1;" stroke-width="0.5" stroke-miterlimit="10"/>
</g>
<path d="M467.974 829.729C451.374 830.589 434.528 824.184 422.595 812.477C410.658 800.768 403.808 783.927 404.137 767.109C420.336 767.99 435.384 774.054 447.376 785.112C459.368 796.165 464.393 813.715 467.974 829.729Z" fill="#E1B8A4" style="fill:#E1B8A4;fill:color(display-p3 0.8824 0.7216 0.6431);fill-opacity:1;"/>
<mask id="mask39_566_15338" style="mask-type:luminance" maskUnits="userSpaceOnUse" x="404" y="767" width="64" height="63">
<path d="M467.974 829.727C451.374 830.587 434.529 824.182 422.595 812.475C410.659 800.766 403.808 783.925 404.137 767.107C420.336 767.988 435.385 774.052 447.376 785.11C459.368 796.163 464.393 813.713 467.974 829.727Z" fill="white" style="fill:white;fill-opacity:1;"/>
</mask>
<g mask="url(#mask39_566_15338)">
<path d="M403.747 765.787C427.631 784.153 449.146 805.675 467.574 829.63" stroke="#4D6C85" style="stroke:#4D6C85;stroke:color(display-p3 0.3020 0.4235 0.5216);stroke-opacity:1;" stroke-width="0.5" stroke-miterlimit="10"/>
<path d="M405.542 785.236C412.875 786.016 420.272 786.167 427.631 785.689" stroke="#4D6C85" style="stroke:#4D6C85;stroke:color(display-p3 0.3020 0.4235 0.5216);stroke-opacity:1;" stroke-width="0.5" stroke-miterlimit="10"/>
<path d="M441.743 799.5C443.601 792.799 444.769 785.902 445.225 778.957" stroke="#4D6C85" style="stroke:#4D6C85;stroke:color(display-p3 0.3020 0.4235 0.5216);stroke-opacity:1;" stroke-width="0.5" stroke-miterlimit="10"/>
</g>
<path d="M429.091 885.656C410.274 888.501 390.366 882.934 375.661 870.716C360.955 858.495 351.683 839.815 350.777 820.58C369.285 822.251 388.779 825.949 404.169 836.487C419.557 847.028 428.939 866.851 429.091 885.656Z" fill="#6B96AF" style="fill:#6B96AF;fill:color(display-p3 0.4196 0.5882 0.6863);fill-opacity:1;"/>
<mask id="mask40_566_15338" style="mask-type:luminance" maskUnits="userSpaceOnUse" x="350" y="820" width="80" height="67">
<path d="M429.092 885.658C410.274 888.503 390.367 882.936 375.661 870.718C360.955 858.497 351.683 839.817 350.777 820.582C369.285 822.253 388.779 825.951 404.169 836.489C419.557 847.03 428.94 866.853 429.092 885.658Z" fill="white" style="fill:white;fill-opacity:1;"/>
</mask>
<g mask="url(#mask40_566_15338)">
<path d="M349.634 819.697C377.549 838.969 403.36 861.36 426.446 886.332" stroke="#4D6C85" style="stroke:#4D6C85;stroke:color(display-p3 0.3020 0.4235 0.5216);stroke-opacity:1;" stroke-width="0.5" stroke-miterlimit="10"/>
</g>
<mask id="mask41_566_15338" style="mask-type:luminance" maskUnits="userSpaceOnUse" x="350" y="820" width="80" height="67">
<path d="M429.092 885.658C410.274 888.503 390.367 882.936 375.661 870.718C360.955 858.497 351.683 839.817 350.777 820.582C369.285 822.253 388.779 825.951 404.169 836.489C419.557 847.03 428.94 866.853 429.092 885.658Z" fill="white" style="fill:white;fill-opacity:1;"/>
</mask>
<g mask="url(#mask41_566_15338)">
<path d="M380.031 824.523C380.771 830.898 381.508 837.273 382.248 843.644" stroke="#4D6C85" style="stroke:#4D6C85;stroke:color(display-p3 0.3020 0.4235 0.5216);stroke-opacity:1;" stroke-width="0.5" stroke-miterlimit="10"/>
</g>
<mask id="mask42_566_15338" style="mask-type:luminance" maskUnits="userSpaceOnUse" x="350" y="820" width="80" height="67">
<path d="M429.092 885.658C410.274 888.503 390.367 882.936 375.661 870.718C360.955 858.497 351.683 839.817 350.777 820.582C369.285 822.253 388.779 825.951 404.169 836.489C419.557 847.03 428.94 866.853 429.092 885.658Z" fill="white" style="fill:white;fill-opacity:1;"/>
</mask>
<g mask="url(#mask42_566_15338)">
<path d="M362.96 859.826C375.633 860.88 388.37 861.162 401.077 860.673" stroke="#4D6C85" style="stroke:#4D6C85;stroke:color(display-p3 0.3020 0.4235 0.5216);stroke-opacity:1;" stroke-width="0.5" stroke-miterlimit="10"/>
</g>
<path d="M550.896 907.1C535.909 890.435 515.336 879.014 493.398 875.177C471.461 871.34 448.292 875.112 428.65 885.721C430.69 900.278 441.784 910.297 454.927 916.557C468.07 922.816 482.967 924.133 497.496 924.15C516.018 924.175 535.644 917.739 550.896 907.1Z" fill="#E1B8A4" style="fill:#E1B8A4;fill:color(display-p3 0.8824 0.7216 0.6431);fill-opacity:1;"/>
<mask id="mask43_566_15338" style="mask-type:luminance" maskUnits="userSpaceOnUse" x="428" y="873" width="123" height="52">
<path d="M550.896 907.1C535.909 890.435 515.335 879.014 493.398 875.177C471.461 871.34 448.292 875.112 428.649 885.721C430.69 900.278 441.784 910.297 454.927 916.557C468.07 922.816 482.967 924.133 497.496 924.15C516.017 924.175 535.644 917.739 550.896 907.1Z" fill="white" style="fill:white;fill-opacity:1;"/>
</mask>
<g mask="url(#mask43_566_15338)">
<path d="M429.011 885.967C467.071 901.905 510.714 908.944 551.882 907.664" stroke="#4D6C85" style="stroke:#4D6C85;stroke:color(display-p3 0.3020 0.4235 0.5216);stroke-opacity:1;" stroke-width="0.5" stroke-miterlimit="10"/>
</g>
<mask id="mask44_566_15338" style="mask-type:luminance" maskUnits="userSpaceOnUse" x="428" y="873" width="123" height="52">
<path d="M550.896 907.1C535.909 890.435 515.335 879.014 493.398 875.177C471.461 871.34 448.292 875.112 428.649 885.721C430.69 900.278 441.784 910.297 454.927 916.557C468.07 922.816 482.967 924.133 497.496 924.15C516.017 924.175 535.644 917.739 550.896 907.1Z" fill="white" style="fill:white;fill-opacity:1;"/>
</mask>
<g mask="url(#mask44_566_15338)">
<path d="M486.763 903.285C492.391 911.532 499.448 918.776 507.519 924.583" stroke="#4D6C85" style="stroke:#4D6C85;stroke:color(display-p3 0.3020 0.4235 0.5216);stroke-opacity:1;" stroke-width="0.5" stroke-miterlimit="10"/>
</g>
<mask id="mask45_566_15338" style="mask-type:luminance" maskUnits="userSpaceOnUse" x="428" y="873" width="123" height="52">
<path d="M550.896 907.1C535.909 890.435 515.335 879.014 493.398 875.177C471.461 871.34 448.292 875.112 428.649 885.721C430.69 900.278 441.784 910.297 454.927 916.557C468.07 922.816 482.967 924.133 497.496 924.15C516.017 924.175 535.644 917.739 550.896 907.1Z" fill="white" style="fill:white;fill-opacity:1;"/>
</mask>
<g mask="url(#mask45_566_15338)">
<path d="M512.803 906.615C518.975 900.395 526.278 895.328 534.235 891.748" stroke="#4D6C85" style="stroke:#4D6C85;stroke:color(display-p3 0.3020 0.4235 0.5216);stroke-opacity:1;" stroke-width="0.5" stroke-miterlimit="10"/>
</g>
<path d="M314.863 1055.68C309.937 1026.92 296.507 998.053 272.063 982.568C255.25 971.918 234.439 968.559 214.824 971.53C208.14 998.386 220.308 1029.24 242.361 1045.64C264.414 1062.04 287.718 1059.17 314.863 1055.68Z" fill="#4D6C85" style="fill:#4D6C85;fill:color(display-p3 0.3020 0.4235 0.5216);fill-opacity:1;"/>
<mask id="mask46_566_15338" style="mask-type:luminance" maskUnits="userSpaceOnUse" x="212" y="970" width="103" height="89">
<path d="M314.863 1055.68C309.937 1026.93 296.507 998.055 272.063 982.57C255.25 971.92 234.44 968.561 214.824 971.532C208.14 998.388 220.308 1029.24 242.361 1045.64C264.415 1062.04 287.719 1059.17 314.863 1055.68Z" fill="white" style="fill:white;fill-opacity:1;"/>
</mask>
<g mask="url(#mask46_566_15338)">
<path d="M214.896 970.18C241.149 1005.55 275.302 1034.88 314.057 1055.34" stroke="#6B96AF" style="stroke:#6B96AF;stroke:color(display-p3 0.4196 0.5882 0.6863);stroke-opacity:1;" stroke-width="0.5" stroke-miterlimit="10"/>
<path d="M243.723 970.916C244.22 981.754 244.791 994.206 245.288 1005.04" stroke="#6B96AF" style="stroke:#6B96AF;stroke:color(display-p3 0.4196 0.5882 0.6863);stroke-opacity:1;" stroke-width="0.5" stroke-miterlimit="10"/>
<path d="M219.889 1022.96C219.684 1023.48 220.471 1023.78 221.024 1023.77C234.045 1023.53 247.039 1021.86 259.707 1018.8" stroke="#6B96AF" style="stroke:#6B96AF;stroke:color(display-p3 0.4196 0.5882 0.6863);stroke-opacity:1;" stroke-width="0.5" stroke-miterlimit="10"/>
</g>
<path d="M460.044 1053.74C440.299 1034.62 410.843 1029.8 383.549 1031.07C359.096 1032.22 333.506 1038.21 315.827 1055.34C328.315 1075.64 352.224 1084.87 375.848 1084.83C406.119 1084.79 439.41 1076.16 460.044 1053.74Z" fill="#E1B8A4" style="fill:#E1B8A4;fill:color(display-p3 0.8824 0.7216 0.6431);fill-opacity:1;"/>
<mask id="mask47_566_15338" style="mask-type:luminance" maskUnits="userSpaceOnUse" x="315" y="1030" width="146" height="55">
<path d="M460.043 1053.74C440.299 1034.63 410.843 1029.8 383.549 1031.07C359.096 1032.22 333.506 1038.21 315.826 1055.35C328.315 1075.64 352.224 1084.87 375.848 1084.83C406.118 1084.79 439.409 1076.16 460.043 1053.74Z" fill="white" style="fill:white;fill-opacity:1;"/>
</mask>
<g mask="url(#mask47_566_15338)">
<path d="M315.504 1054.34C363.859 1057.69 412.817 1061 460.494 1052.17" stroke="#4D6C85" style="stroke:#4D6C85;stroke:color(display-p3 0.3020 0.4235 0.5216);stroke-opacity:1;" stroke-width="0.5" stroke-miterlimit="10"/>
<path d="M404.901 1057.75C412.817 1049.29 420.915 1040.7 431.043 1035.17" stroke="#4D6C85" style="stroke:#4D6C85;stroke:color(display-p3 0.3020 0.4235 0.5216);stroke-opacity:1;" stroke-width="0.5" stroke-miterlimit="10"/>
<path d="M431.403 1056.27C435.489 1060.89 440.26 1064.89 445.506 1068.1" stroke="#4D6C85" style="stroke:#4D6C85;stroke:color(display-p3 0.3020 0.4235 0.5216);stroke-opacity:1;" stroke-width="0.5" stroke-miterlimit="10"/>
</g>
<path d="M492.244 969.087C473.322 954.745 449.941 946.529 426.308 945.914C402.675 945.299 378.908 952.294 359.284 965.633C365.798 980.056 376.511 992.872 391.62 997.075C406.729 1001.28 422.801 1000.35 438.236 997.618C458.185 994.091 479.775 985.237 492.244 969.087Z" fill="#4D6C85" style="fill:#4D6C85;fill:color(display-p3 0.3020 0.4235 0.5216);fill-opacity:1;"/>
<mask id="mask48_566_15338" style="mask-type:luminance" maskUnits="userSpaceOnUse" x="359" y="945" width="134" height="55">
<path d="M492.244 969.085C473.322 954.743 449.94 946.527 426.308 945.912C402.675 945.298 378.907 952.292 359.284 965.631C365.797 980.054 376.511 992.87 391.62 997.073C406.729 1001.28 422.801 1000.34 438.236 997.616C458.185 994.089 479.774 985.235 492.244 969.085Z" fill="white" style="fill:white;fill-opacity:1;"/>
</mask>
<g mask="url(#mask48_566_15338)">
<path d="M359.173 966.824C402.733 978.296 448.96 979.252 492.948 969.594" stroke="#6B96AF" style="stroke:#6B96AF;stroke:color(display-p3 0.4196 0.5882 0.6863);stroke-opacity:1;" stroke-width="0.5" stroke-miterlimit="10"/>
</g>
<mask id="mask49_566_15338" style="mask-type:luminance" maskUnits="userSpaceOnUse" x="359" y="945" width="134" height="55">
<path d="M492.244 969.085C473.322 954.743 449.94 946.527 426.308 945.912C402.675 945.298 378.907 952.292 359.284 965.631C365.797 980.054 376.511 992.87 391.62 997.073C406.729 1001.28 422.801 1000.34 438.236 997.616C458.185 994.089 479.774 985.235 492.244 969.085Z" fill="white" style="fill:white;fill-opacity:1;"/>
</mask>
<g mask="url(#mask49_566_15338)">
<path d="M445.208 976.07C450.338 982.157 457.017 986.894 464.42 989.694" stroke="#6B96AF" style="stroke:#6B96AF;stroke:color(display-p3 0.4196 0.5882 0.6863);stroke-opacity:1;" stroke-width="0.5" stroke-miterlimit="10"/>
</g>
<mask id="mask50_566_15338" style="mask-type:luminance" maskUnits="userSpaceOnUse" x="359" y="945" width="134" height="55">
<path d="M492.244 969.085C473.322 954.743 449.94 946.527 426.308 945.912C402.675 945.298 378.907 952.292 359.284 965.631C365.797 980.054 376.511 992.87 391.62 997.073C406.729 1001.28 422.801 1000.34 438.236 997.616C458.185 994.089 479.774 985.235 492.244 969.085Z" fill="white" style="fill:white;fill-opacity:1;"/>
</mask>
<g mask="url(#mask50_566_15338)">
<path d="M411.516 975.404C422.127 964.1 434.147 954.148 447.196 945.859" stroke="#6B96AF" style="stroke:#6B96AF;stroke:color(display-p3 0.4196 0.5882 0.6863);stroke-opacity:1;" stroke-width="0.5" stroke-miterlimit="10"/>
</g>
<path d="M357.881 964.627C336.375 962.327 316.017 950.586 303.098 933.033C290.178 915.48 284.893 892.377 288.872 870.861C310.423 873.399 329.566 885.189 342.645 902.709C355.728 920.226 361.355 942.949 357.881 964.627Z" fill="#E1B8A4" style="fill:#E1B8A4;fill:color(display-p3 0.8824 0.7216 0.6431);fill-opacity:1;"/>
<mask id="mask51_566_15338" style="mask-type:luminance" maskUnits="userSpaceOnUse" x="287" y="870" width="72" height="95">
<path d="M357.881 964.63C336.375 962.331 316.017 950.59 303.098 933.037C290.178 915.484 284.893 892.381 288.872 870.865C310.423 873.403 329.566 885.193 342.645 902.713C355.728 920.229 361.355 942.953 357.881 964.63Z" fill="white" style="fill:white;fill-opacity:1;"/>
</mask>
<g mask="url(#mask51_566_15338)">
<path d="M287.895 868.959C312.737 899.236 336.317 930.575 358.55 962.864" stroke="#4D6C85" style="stroke:#4D6C85;stroke:color(display-p3 0.3020 0.4235 0.5216);stroke-opacity:1;" stroke-width="0.5" stroke-miterlimit="10"/>
<path d="M287.613 904.246C297.503 906.099 307.62 906.711 317.66 906.068" stroke="#4D6C85" style="stroke:#4D6C85;stroke:color(display-p3 0.3020 0.4235 0.5216);stroke-opacity:1;" stroke-width="0.5" stroke-miterlimit="10"/>
<path d="M341.453 899.852C341.411 910.507 339.926 921.158 337.052 931.411" stroke="#4D6C85" style="stroke:#4D6C85;stroke:color(display-p3 0.3020 0.4235 0.5216);stroke-opacity:1;" stroke-width="0.5" stroke-miterlimit="10"/>
</g>
</g>
<mask id="mask52_566_15338" style="mask-type:luminance" maskUnits="userSpaceOnUse" x="33" y="28" width="839" height="1163">
<path d="M674.769 69.4365C722.435 84.4129 765.544 121.981 772.088 171.136C781.735 174.978 784.571 187.16 786.07 197.542C790.215 226.254 794.362 254.969 798.507 283.681C800.031 294.228 801.558 304.858 800.989 315.5C800.343 327.618 796.996 339.467 796.419 351.587C794.704 387.744 817.302 419.98 839.427 448.421C841.335 450.875 843.359 453.683 843.013 456.788C842.721 459.412 840.793 461.514 838.897 463.328C831.088 470.792 822.026 476.912 812.216 481.339C809.286 488.708 807.613 499.691 810.17 507.203C810.802 509.064 811.614 510.984 811.302 512.927C811.05 514.486 810.106 515.827 809.187 517.107L799.595 528.451C798.17 530.435 797.861 533.062 798.901 535.278C800.207 538.056 802.093 541.041 801.127 543.955C800.757 545.076 799.995 546.015 799.249 546.926C796.682 550.062 794.116 553.197 791.549 556.333C791.311 570.974 796.952 587.725 792.446 601.642C789.077 612.046 779.215 619.245 768.78 622.143C758.346 625.044 747.301 624.318 736.527 623.317C712.903 621.123 689.392 617.717 666.107 613.111C660.452 613.938 656.148 619.899 651.562 623.351C636.618 634.605 623.989 648.994 614.731 665.354C612.37 669.526 610.976 674.294 611.486 679.076C613.198 695.105 630.679 703.224 643.518 713.321C666.994 731.782 677.337 763.001 679.518 793.007C681.175 815.811 695.419 839.621 713.505 853.326C731.59 867.031 752.956 876.186 769.625 891.621C798.642 918.488 809.217 961.045 806.862 1000.78C805.73 1019.88 801.972 1038.82 802.198 1057.96C802.425 1077.09 807.246 1097.19 820.601 1110.74C833.957 1124.28 857.374 1128.64 872 1116.52C865.21 1136.2 841.724 1145.26 821.203 1143.48C800.68 1141.7 781.818 1131.93 762.385 1125.02C723.92 1111.34 680.625 1111.99 646.15 1134.01C655.51 1142.42 666.546 1148.94 674.896 1158.37C683.246 1167.8 686.658 1179.41 681.6 1191C670.823 1172.25 648.408 1163.86 627.23 1160.55C586.854 1154.23 545.777 1161.2 504.987 1163.53C480.197 1164.94 452.492 1163.51 434.97 1145.7C426.391 1136.99 421.429 1125.39 415.114 1114.88C403.396 1095.38 386.329 1078.99 365.894 1069.33C331.794 1053.22 292.064 1056.79 255.377 1048.31C187.309 1032.56 132.04 970.96 123.105 900.871C116.627 922.381 105.323 939.836 86.6962 952.091C110.296 930.846 113.94 893.873 105.182 863.16C96.4236 832.447 77.612 805.901 61.4925 778.413C45.3702 750.925 31.3464 720.173 33.8645 688.309C38.5088 629.535 97.2382 585.375 99.4995 526.458C100.477 500.974 90.5314 476.507 86.1163 451.397C79.0146 411.009 87.6487 366.388 115.426 336.516C131.291 319.452 152.229 308.1 169.227 292.19C211.124 252.973 224.27 191.464 258.69 145.392C283.77 111.82 320.429 87.663 360.576 76.6941C391.109 68.3521 404.829 55.564 425.805 45.562C461.189 28.6908 498.078 24.8566 536.613 31.6587C573.057 38.092 592.716 58.3614 644.766 63.6712C654.919 64.7024 665.025 66.3736 674.769 69.4365Z" fill="white" style="fill:white;fill-opacity:1;"/>
</mask>
<g mask="url(#mask52_566_15338)">
<path d="M431.132 1290.01C460.361 1269.49 478.778 1236.58 491.714 1203.05C504.65 1169.51 513.116 1134.24 527.819 1101.46C553.456 1044.3 598.219 996.139 653.025 966.754" stroke="#4D6C85" style="stroke:#4D6C85;stroke:color(display-p3 0.3020 0.4235 0.5216);stroke-opacity:1;" stroke-miterlimit="10"/>
<path d="M632.019 980.269C645.855 979.355 660.158 978.313 672.428 971.779C684.506 965.348 693.501 954.092 699.822 941.848C685.224 938.246 671.804 939.247 658.239 945.789C644.673 952.331 638.45 966.525 632.019 980.269Z" fill="#4D6C85" style="fill:#4D6C85;fill:color(display-p3 0.3020 0.4235 0.5216);fill-opacity:1;"/>
<mask id="mask53_566_15338" style="mask-type:luminance" maskUnits="userSpaceOnUse" x="632" y="939" width="68" height="42">
<path d="M632.019 980.271C645.855 979.357 660.158 978.315 672.429 971.781C684.506 965.35 693.502 954.094 699.822 941.85C685.224 938.248 671.805 939.249 658.239 945.791C644.674 952.333 638.45 966.527 632.019 980.271Z" fill="white" style="fill:white;fill-opacity:1;"/>
</mask>
<g mask="url(#mask53_566_15338)">
<path d="M701.028 941.965C677.694 954.144 654.666 966.921 631.967 980.273" stroke="#6B96AF" style="stroke:#6B96AF;stroke:color(display-p3 0.4196 0.5882 0.6863);stroke-opacity:1;" stroke-width="0.5" stroke-miterlimit="10"/>
</g>
<mask id="mask54_566_15338" style="mask-type:luminance" maskUnits="userSpaceOnUse" x="632" y="939" width="68" height="42">
<path d="M632.019 980.271C645.855 979.357 660.158 978.315 672.429 971.781C684.506 965.35 693.502 954.094 699.822 941.85C685.224 938.248 671.805 939.249 658.239 945.791C644.674 952.333 638.45 966.527 632.019 980.271Z" fill="white" style="fill:white;fill-opacity:1;"/>
</mask>
<g mask="url(#mask54_566_15338)">
<path d="M671.018 957.478C672.039 951.322 673.657 945.266 675.841 939.428" stroke="#6B96AF" style="stroke:#6B96AF;stroke:color(display-p3 0.4196 0.5882 0.6863);stroke-opacity:1;" stroke-width="0.5" stroke-miterlimit="10"/>
</g>
<mask id="mask55_566_15338" style="mask-type:luminance" maskUnits="userSpaceOnUse" x="632" y="939" width="68" height="42">
<path d="M632.019 980.271C645.855 979.357 660.158 978.315 672.429 971.781C684.506 965.35 693.502 954.094 699.822 941.85C685.224 938.248 671.805 939.249 658.239 945.791C644.674 952.333 638.45 966.527 632.019 980.271Z" fill="white" style="fill:white;fill-opacity:1;"/>
</mask>
<g mask="url(#mask55_566_15338)">
<path d="M676.029 970.336C670.255 968.822 664.57 966.961 659.012 964.77" stroke="#6B96AF" style="stroke:#6B96AF;stroke:color(display-p3 0.4196 0.5882 0.6863);stroke-opacity:1;" stroke-width="0.5" stroke-miterlimit="10"/>
</g>
<path d="M598.23 1001.47C606.851 1011.9 619.008 1019.28 632.159 1022.07C645.311 1024.86 659.37 1023.03 671.401 1016.98C652.89 996.309 624.003 991.586 598.23 1001.47Z" fill="#E1B8A4" style="fill:#E1B8A4;fill:color(display-p3 0.8824 0.7216 0.6431);fill-opacity:1;"/>
<mask id="mask56_566_15338" style="mask-type:luminance" maskUnits="userSpaceOnUse" x="598" y="996" width="74" height="28">
<path d="M598.23 1001.47C606.851 1011.9 619.008 1019.28 632.159 1022.07C645.311 1024.85 659.37 1023.03 671.401 1016.98C652.89 996.307 624.003 991.584 598.23 1001.47Z" fill="white" style="fill:white;fill-opacity:1;"/>
</mask>
<g mask="url(#mask56_566_15338)">
<path d="M671.74 1017.53C648.999 1006.61 623.404 1003.84 598.368 1001.23" stroke="#4D6C85" style="stroke:#4D6C85;stroke:color(display-p3 0.3020 0.4235 0.5216);stroke-opacity:1;" stroke-width="0.5" stroke-miterlimit="10"/>
<path d="M656.717 1022.92C652.495 1018.5 648.828 1013.53 645.827 1008.19" stroke="#4D6C85" style="stroke:#4D6C85;stroke:color(display-p3 0.3020 0.4235 0.5216);stroke-opacity:1;" stroke-width="0.5" stroke-miterlimit="10"/>
</g>
<mask id="mask57_566_15338" style="mask-type:luminance" maskUnits="userSpaceOnUse" x="598" y="996" width="74" height="28">
<path d="M598.23 1001.47C606.851 1011.9 619.008 1019.28 632.159 1022.07C645.311 1024.85 659.37 1023.03 671.401 1016.98C652.89 996.307 624.003 991.584 598.23 1001.47Z" fill="white" style="fill:white;fill-opacity:1;"/>
</mask>
<g mask="url(#mask57_566_15338)">
<path d="M641.732 998.008C637.152 999.676 632.784 1001.94 628.772 1004.73" stroke="#4D6C85" style="stroke:#4D6C85;stroke:color(display-p3 0.3020 0.4235 0.5216);stroke-opacity:1;" stroke-width="0.5" stroke-miterlimit="10"/>
</g>
<path d="M587.871 922.533C591.126 923.785 593.316 926.837 595.202 929.802C602.248 940.877 607.85 953.199 609.206 966.3C610.562 979.401 607.248 993.38 598.388 1003.03C578.864 982.274 578.215 949.468 587.871 922.533Z" fill="#6B96AF" style="fill:#6B96AF;fill:color(display-p3 0.4196 0.5882 0.6863);fill-opacity:1;"/>
<mask id="mask58_566_15338" style="mask-type:luminance" maskUnits="userSpaceOnUse" x="581" y="922" width="29" height="82">
<path d="M587.871 922.535C591.126 923.787 593.316 926.839 595.202 929.804C602.248 940.879 607.85 953.201 609.206 966.302C610.562 979.403 607.248 993.382 598.388 1003.03C578.864 982.276 578.215 949.47 587.871 922.535Z" fill="white" style="fill:white;fill-opacity:1;"/>
</mask>
<g mask="url(#mask58_566_15338)">
<path d="M598.899 1002.48C594.649 976.145 591.493 948.965 587.87 922.539" stroke="#4D6C85" style="stroke:#4D6C85;stroke:color(display-p3 0.3020 0.4235 0.5216);stroke-opacity:1;" stroke-width="0.5" stroke-miterlimit="10"/>
</g>
<mask id="mask59_566_15338" style="mask-type:luminance" maskUnits="userSpaceOnUse" x="581" y="922" width="29" height="82">
<path d="M587.871 922.535C591.126 923.787 593.316 926.839 595.202 929.804C602.248 940.879 607.85 953.201 609.206 966.302C610.562 979.403 607.248 993.382 598.388 1003.03C578.864 982.276 578.215 949.47 587.871 922.535Z" fill="white" style="fill:white;fill-opacity:1;"/>
</mask>
<g mask="url(#mask59_566_15338)">
<path d="M593.694 968.353C598.601 962.342 602.728 955.682 605.942 948.598" stroke="#4D6C85" style="stroke:#4D6C85;stroke:color(display-p3 0.3020 0.4235 0.5216);stroke-opacity:1;" stroke-width="0.5" stroke-miterlimit="10"/>
</g>
<mask id="mask60_566_15338" style="mask-type:luminance" maskUnits="userSpaceOnUse" x="581" y="922" width="29" height="82">
<path d="M587.871 922.535C591.126 923.787 593.316 926.839 595.202 929.804C602.248 940.879 607.85 953.201 609.206 966.302C610.562 979.403 607.248 993.382 598.388 1003.03C578.864 982.276 578.215 949.47 587.871 922.535Z" fill="white" style="fill:white;fill-opacity:1;"/>
</mask>
<g mask="url(#mask60_566_15338)">
<path d="M591.82 952.398C587.835 950.006 583.426 945.981 580.659 942.223" stroke="#4D6C85" style="stroke:#4D6C85;stroke:color(display-p3 0.3020 0.4235 0.5216);stroke-opacity:1;" stroke-width="0.5" stroke-miterlimit="10"/>
</g>
<path d="M526.698 965.107C539.482 977.043 549.483 992.271 554.113 1009.24C558.744 1026.21 557.777 1044.91 550.217 1060.76C535.481 1050.75 523.851 1036.89 518.815 1019.66C513.779 1002.44 519.718 981.621 526.698 965.107Z" fill="#E1B8A4" style="fill:#E1B8A4;fill:color(display-p3 0.8824 0.7216 0.6431);fill-opacity:1;"/>
<mask id="mask61_566_15338" style="mask-type:luminance" maskUnits="userSpaceOnUse" x="516" y="965" width="41" height="96">
<path d="M526.698 965.111C539.482 977.047 549.483 992.275 554.114 1009.24C558.744 1026.21 557.778 1044.91 550.218 1060.77C535.481 1050.76 523.851 1036.89 518.815 1019.67C513.779 1002.44 519.718 981.625 526.698 965.111Z" fill="white" style="fill:white;fill-opacity:1;"/>
</mask>
<g mask="url(#mask61_566_15338)">
<path d="M549.646 1059.33C538.825 1029.62 530.616 996.512 526.701 965.104" stroke="#4D6C85" style="stroke:#4D6C85;stroke:color(display-p3 0.3020 0.4235 0.5216);stroke-opacity:1;" stroke-width="0.5" stroke-miterlimit="10"/>
</g>
<mask id="mask62_566_15338" style="mask-type:luminance" maskUnits="userSpaceOnUse" x="516" y="965" width="41" height="96">
<path d="M526.698 965.111C539.482 977.047 549.483 992.275 554.114 1009.24C558.744 1026.21 557.778 1044.91 550.218 1060.77C535.481 1050.76 523.851 1036.89 518.815 1019.67C513.779 1002.44 519.718 981.625 526.698 965.111Z" fill="white" style="fill:white;fill-opacity:1;"/>
</mask>
<g mask="url(#mask62_566_15338)">
<path d="M531.693 994.18C526.425 989.842 521.794 984.717 517.995 979.021" stroke="#4D6C85" style="stroke:#4D6C85;stroke:color(display-p3 0.3020 0.4235 0.5216);stroke-opacity:1;" stroke-width="0.5" stroke-miterlimit="10"/>
</g>
<mask id="mask63_566_15338" style="mask-type:luminance" maskUnits="userSpaceOnUse" x="516" y="965" width="41" height="96">
<path d="M526.698 965.111C539.482 977.047 549.483 992.275 554.114 1009.24C558.744 1026.21 557.778 1044.91 550.218 1060.77C535.481 1050.76 523.851 1036.89 518.815 1019.67C513.779 1002.44 519.718 981.625 526.698 965.111Z" fill="white" style="fill:white;fill-opacity:1;"/>
</mask>
<g mask="url(#mask63_566_15338)">
<path d="M538.339 1023.64C543.701 1014.5 547.727 1004.56 550.245 994.244" stroke="#4D6C85" style="stroke:#4D6C85;stroke:color(display-p3 0.3020 0.4235 0.5216);stroke-opacity:1;" stroke-width="0.5" stroke-miterlimit="10"/>
</g>
<path d="M548.122 1058.88C555.08 1073.24 568.118 1084.45 583.241 1089.08C598.363 1093.71 615.356 1091.7 629.012 1083.66C620.809 1070.44 608.881 1060.58 594.266 1055.6C579.651 1050.62 562.922 1054.5 548.122 1058.88Z" fill="#4D6C85" style="fill:#4D6C85;fill:color(display-p3 0.3020 0.4235 0.5216);fill-opacity:1;"/>
<mask id="mask64_566_15338" style="mask-type:luminance" maskUnits="userSpaceOnUse" x="548" y="1053" width="82" height="39">
<path d="M548.122 1058.88C555.08 1073.24 568.118 1084.45 583.241 1089.08C598.364 1093.72 615.356 1091.7 629.012 1083.66C620.809 1070.44 608.881 1060.58 594.266 1055.6C579.652 1050.62 562.922 1054.5 548.122 1058.88Z" fill="white" style="fill:white;fill-opacity:1;"/>
</mask>
<g mask="url(#mask64_566_15338)">
<path d="M630.274 1083.38C604.165 1071.77 576.564 1063.61 548.387 1059.17" stroke="#6B96AF" style="stroke:#6B96AF;stroke:color(display-p3 0.4196 0.5882 0.6863);stroke-opacity:1;" stroke-width="0.5" stroke-miterlimit="10"/>
<path d="M613.475 1090.85C609.449 1085.04 605.909 1078.89 602.902 1072.48" stroke="#6B96AF" style="stroke:#6B96AF;stroke:color(display-p3 0.4196 0.5882 0.6863);stroke-opacity:1;" stroke-width="0.5" stroke-miterlimit="10"/>
<path d="M585.05 1066.98C589.694 1062.33 594.816 1058.16 600.31 1054.57" stroke="#6B96AF" style="stroke:#6B96AF;stroke:color(display-p3 0.4196 0.5882 0.6863);stroke-opacity:1;" stroke-width="0.5" stroke-miterlimit="10"/>
</g>
<path d="M520.156 1117.41C526.51 1134.55 540.271 1148.72 557.095 1155.45C573.918 1162.17 593.536 1161.35 609.747 1153.23C599.829 1138.43 587.793 1123.74 572.032 1115.66C556.272 1107.59 535.666 1108.85 520.156 1117.41Z" fill="#E1B8A4" style="fill:#E1B8A4;fill:color(display-p3 0.8824 0.7216 0.6431);fill-opacity:1;"/>
<mask id="mask65_566_15338" style="mask-type:luminance" maskUnits="userSpaceOnUse" x="520" y="1110" width="90" height="50">
<path d="M520.156 1117.41C526.509 1134.55 540.271 1148.72 557.094 1155.45C573.918 1162.17 593.536 1161.35 609.746 1153.23C599.828 1138.43 587.793 1123.75 572.032 1115.67C556.271 1107.59 535.665 1108.85 520.156 1117.41Z" fill="white" style="fill:white;fill-opacity:1;"/>
</mask>
<g mask="url(#mask65_566_15338)">
<path d="M611 1153.78C582.287 1139.2 551.986 1127.83 520.821 1119.94" stroke="#4D6C85" style="stroke:#4D6C85;stroke:color(display-p3 0.3020 0.4235 0.5216);stroke-opacity:1;" stroke-width="0.5" stroke-miterlimit="10"/>
</g>
<mask id="mask66_566_15338" style="mask-type:luminance" maskUnits="userSpaceOnUse" x="520" y="1110" width="90" height="50">
<path d="M520.156 1117.41C526.509 1134.55 540.271 1148.72 557.094 1155.45C573.918 1162.17 593.536 1161.35 609.746 1153.23C599.828 1138.43 587.793 1123.75 572.032 1115.67C556.271 1107.59 535.665 1108.85 520.156 1117.41Z" fill="white" style="fill:white;fill-opacity:1;"/>
</mask>
<g mask="url(#mask66_566_15338)">
<path d="M593 1130.44C587.425 1132.77 581.851 1135.09 576.276 1137.41" stroke="#4D6C85" style="stroke:#4D6C85;stroke:color(display-p3 0.3020 0.4235 0.5216);stroke-opacity:1;" stroke-width="0.5" stroke-miterlimit="10"/>
</g>
<mask id="mask67_566_15338" style="mask-type:luminance" maskUnits="userSpaceOnUse" x="520" y="1110" width="90" height="50">
<path d="M520.156 1117.41C526.509 1134.55 540.271 1148.72 557.094 1155.45C573.918 1162.17 593.536 1161.35 609.746 1153.23C599.828 1138.43 587.793 1123.75 572.032 1115.67C556.271 1107.59 535.665 1108.85 520.156 1117.41Z" fill="white" style="fill:white;fill-opacity:1;"/>
</mask>
<g mask="url(#mask67_566_15338)">
<path d="M571.9 1161.1C565.182 1150.93 559.069 1140.34 553.602 1129.43" stroke="#4D6C85" style="stroke:#4D6C85;stroke:color(display-p3 0.3020 0.4235 0.5216);stroke-opacity:1;" stroke-width="0.5" stroke-miterlimit="10"/>
</g>
<path d="M446.305 1024.86C466.905 1029.77 485.783 1041.8 499.064 1058.48C512.345 1075.16 519.944 1096.39 520.303 1117.81C507.409 1122.81 494.061 1118.11 482.851 1109.95C471.641 1101.78 463.683 1089.86 456.96 1077.65C448.389 1062.08 444.612 1042.6 446.305 1024.86Z" fill="#6B96AF" style="fill:#6B96AF;fill:color(display-p3 0.4196 0.5882 0.6863);fill-opacity:1;"/>
<mask id="mask68_566_15338" style="mask-type:luminance" maskUnits="userSpaceOnUse" x="445" y="1024" width="76" height="96">
<path d="M446.305 1024.86C466.905 1029.77 485.783 1041.8 499.064 1058.48C512.345 1075.16 519.944 1096.39 520.303 1117.81C507.409 1122.81 494.061 1118.11 482.851 1109.94C471.641 1101.78 463.683 1089.86 456.96 1077.65C448.389 1062.08 444.612 1042.6 446.305 1024.86Z" fill="white" style="fill:white;fill-opacity:1;"/>
</mask>
<g mask="url(#mask68_566_15338)">
<path d="M519.933 1117.62C489.277 1092.97 463.344 1059.51 445.385 1024.29" stroke="#4D6C85" style="stroke:#4D6C85;stroke:color(display-p3 0.3020 0.4235 0.5216);stroke-opacity:1;" stroke-width="0.5" stroke-miterlimit="10"/>
</g>
<mask id="mask69_566_15338" style="mask-type:luminance" maskUnits="userSpaceOnUse" x="445" y="1024" width="76" height="96">
<path d="M446.305 1024.86C466.905 1029.77 485.783 1041.8 499.064 1058.48C512.345 1075.16 519.944 1096.39 520.303 1117.81C507.409 1122.81 494.061 1118.11 482.851 1109.94C471.641 1101.78 463.683 1089.86 456.96 1077.65C448.389 1062.08 444.612 1042.6 446.305 1024.86Z" fill="white" style="fill:white;fill-opacity:1;"/>
</mask>
<g mask="url(#mask69_566_15338)">
<path d="M479.049 1077.04C469.68 1076.12 460.475 1073.53 451.979 1069.42" stroke="#4D6C85" style="stroke:#4D6C85;stroke:color(display-p3 0.3020 0.4235 0.5216);stroke-opacity:1;" stroke-width="0.5" stroke-miterlimit="10"/>
</g>
<mask id="mask70_566_15338" style="mask-type:luminance" maskUnits="userSpaceOnUse" x="445" y="1024" width="76" height="96">
<path d="M446.305 1024.86C466.905 1029.77 485.783 1041.8 499.064 1058.48C512.345 1075.16 519.944 1096.39 520.303 1117.81C507.409 1122.81 494.061 1118.11 482.851 1109.94C471.641 1101.78 463.683 1089.86 456.96 1077.65C448.389 1062.08 444.612 1042.6 446.305 1024.86Z" fill="white" style="fill:white;fill-opacity:1;"/>
</mask>
<g mask="url(#mask70_566_15338)">
<path d="M464.291 1056.67C466.549 1048.61 467.336 1040.13 466.602 1031.78" stroke="#4D6C85" style="stroke:#4D6C85;stroke:color(display-p3 0.3020 0.4235 0.5216);stroke-opacity:1;" stroke-width="0.5" stroke-miterlimit="10"/>
</g>
<path d="M367.861 1168.98C392.672 1176.76 410.236 1199.31 421.791 1222.86C432.146 1243.95 439.04 1268.24 433.134 1291.02C410.703 1289.89 392.09 1274.04 381.211 1254.15C367.27 1228.67 358.984 1196.69 367.861 1168.98Z" fill="#E1B8A4" style="fill:#E1B8A4;fill:color(display-p3 0.8824 0.7216 0.6431);fill-opacity:1;"/>
<mask id="mask71_566_15338" style="mask-type:luminance" maskUnits="userSpaceOnUse" x="364" y="1168" width="72" height="124">
<path d="M367.861 1168.99C392.673 1176.77 410.236 1199.31 421.792 1222.86C432.146 1243.95 439.04 1268.24 433.134 1291.02C410.703 1289.89 392.09 1274.04 381.211 1254.16C367.27 1228.68 358.984 1196.69 367.861 1168.99Z" fill="white" style="fill:white;fill-opacity:1;"/>
</mask>
<g mask="url(#mask71_566_15338)">
<path d="M434.109 1290.83C409.035 1251.7 383.71 1212.06 368.941 1167.88" stroke="#4D6C85" style="stroke:#4D6C85;stroke:color(display-p3 0.3020 0.4235 0.5216);stroke-opacity:1;" stroke-width="0.5" stroke-miterlimit="10"/>
<path d="M390.035 1217.21C393.321 1206.65 396.64 1195.87 396.499 1184.8" stroke="#4D6C85" style="stroke:#4D6C85;stroke:color(display-p3 0.3020 0.4235 0.5216);stroke-opacity:1;" stroke-width="0.5" stroke-miterlimit="10"/>
<path d="M379.016 1194.24C373.331 1192.94 367.842 1190.77 362.786 1187.84" stroke="#4D6C85" style="stroke:#4D6C85;stroke:color(display-p3 0.3020 0.4235 0.5216);stroke-opacity:1;" stroke-width="0.5" stroke-miterlimit="10"/>
</g>
<path d="M422.495 1102.81C443.007 1112.1 460.549 1127.98 471.966 1147.57C483.381 1167.16 488.616 1190.38 486.724 1213.05C471.875 1214.23 456.404 1211.13 445.978 1200.37C435.552 1189.6 428.895 1175.65 424.008 1161.41C417.693 1143 414.993 1120.76 422.495 1102.81Z" fill="#4D6C85" style="fill:#4D6C85;fill:color(display-p3 0.3020 0.4235 0.5216);fill-opacity:1;"/>
<mask id="mask72_566_15338" style="mask-type:luminance" maskUnits="userSpaceOnUse" x="417" y="1102" width="71" height="112">
<path d="M422.495 1102.81C443.007 1112.1 460.549 1127.98 471.966 1147.57C483.381 1167.16 488.616 1190.38 486.724 1213.05C471.875 1214.23 456.404 1211.13 445.978 1200.37C435.552 1189.6 428.895 1175.65 424.008 1161.41C417.693 1143 414.993 1120.76 422.495 1102.81Z" fill="white" style="fill:white;fill-opacity:1;"/>
</mask>
<g mask="url(#mask72_566_15338)">
<path d="M485.797 1213.69C456.264 1182.35 434.133 1143.91 421.755 1102.45" stroke="#6B96AF" style="stroke:#6B96AF;stroke:color(display-p3 0.4196 0.5882 0.6863);stroke-opacity:1;" stroke-width="0.5" stroke-miterlimit="10"/>
</g>
<mask id="mask73_566_15338" style="mask-type:luminance" maskUnits="userSpaceOnUse" x="417" y="1102" width="71" height="112">
<path d="M422.495 1102.81C443.007 1112.1 460.549 1127.98 471.966 1147.57C483.381 1167.16 488.616 1190.38 486.724 1213.05C471.875 1214.23 456.404 1211.13 445.978 1200.37C435.552 1189.6 428.895 1175.65 424.008 1161.41C417.693 1143 414.993 1120.76 422.495 1102.81Z" fill="white" style="fill:white;fill-opacity:1;"/>
</mask>
<g mask="url(#mask73_566_15338)">
<path d="M438.477 1145.6C431.11 1144.1 424.138 1140.66 418.42 1135.73" stroke="#6B96AF" style="stroke:#6B96AF;stroke:color(display-p3 0.4196 0.5882 0.6863);stroke-opacity:1;" stroke-width="0.5" stroke-miterlimit="10"/>
</g>
<mask id="mask74_566_15338" style="mask-type:luminance" maskUnits="userSpaceOnUse" x="417" y="1102" width="71" height="112">
<path d="M422.495 1102.81C443.007 1112.1 460.549 1127.98 471.966 1147.57C483.381 1167.16 488.616 1190.38 486.724 1213.05C471.875 1214.23 456.404 1211.13 445.978 1200.37C435.552 1189.6 428.895 1175.65 424.008 1161.41C417.693 1143 414.993 1120.76 422.495 1102.81Z" fill="white" style="fill:white;fill-opacity:1;"/>
</mask>
<g mask="url(#mask74_566_15338)">
<path d="M454.585 1173.63C458.967 1159.48 461.587 1144.78 462.369 1129.98" stroke="#6B96AF" style="stroke:#6B96AF;stroke:color(display-p3 0.4196 0.5882 0.6863);stroke-opacity:1;" stroke-width="0.5" stroke-miterlimit="10"/>
</g>
</g>
<path d="M464.79 94.4562C475.321 79.0969 493.898 69.3856 512.751 69.3828C531.604 69.38 550.184 79.0857 560.72 94.4422C585.675 88.8641 612.939 92.1897 632.167 108.726C643.049 118.082 650.021 132.08 651.678 142.907C671.839 134.481 692.407 139.346 706.409 153.054C721.951 168.268 724.519 191.826 719.74 208.365C733.476 211.408 743.764 224.121 745.877 237.798C747.992 251.475 745.562 266.035 736.85 276.906C732.615 282.193 726.521 287.215 719.077 290.242C707.765 294.842 694.97 295.149 682.705 295.066C656.827 294.889 627.029 294.73 601.149 294.554C598.277 308.34 588.851 320.555 576.376 327.472C563.901 334.389 548.626 336.035 534.768 332.472C526.25 330.281 518.831 325.387 513.494 318.507C493.525 353.518 448.383 372.611 408.769 362.799C379.308 355.502 354.372 331.848 350.263 302.278C329.594 306.127 307.358 294.451 297.882 276.001C288.406 257.55 291.642 232.826 304.522 216.489C300.312 196.091 302.294 171.034 316.47 155.566C330.643 140.098 352.978 131.13 379.12 137.39C378.557 123.327 386.139 108.695 397.073 99.9979C408.004 91.3011 422.128 87.3243 436.03 87.1315C446.586 86.9834 456.164 88.2885 464.79 94.4562Z" fill="#6B96AF" style="fill:#6B96AF;fill:color(display-p3 0.4196 0.5882 0.6863);fill-opacity:1;"/>
<mask id="mask75_566_15338" style="mask-type:luminance" maskUnits="userSpaceOnUse" x="292" y="69" width="455" height="297">
<path d="M464.789 94.462C475.32 79.1028 493.897 69.3915 512.75 69.3887C531.603 69.3859 550.183 79.0916 560.72 94.4481C585.675 88.87 612.938 92.1956 632.167 108.731C643.049 118.088 650.02 132.086 651.677 142.912C671.839 134.487 692.407 139.352 706.408 153.06C721.951 168.274 724.519 191.832 719.739 208.371C733.476 211.414 743.764 224.127 745.876 237.804C747.991 251.481 745.561 266.041 736.85 276.912C732.614 282.199 726.521 287.221 719.077 290.248C707.764 294.848 694.969 295.155 682.704 295.071C656.827 294.895 627.028 294.736 601.148 294.56C598.277 308.346 588.85 320.561 576.375 327.478C563.901 334.395 548.626 336.041 534.768 332.477C526.25 330.286 518.83 325.393 513.493 318.513C493.525 353.524 448.383 372.617 408.769 362.805C379.307 355.508 354.372 331.854 350.263 302.284C329.593 306.133 307.358 294.457 297.881 276.006C288.405 257.556 291.641 232.832 304.522 216.495C300.311 196.097 302.294 171.04 316.469 155.572C330.642 140.104 352.977 131.136 379.12 137.396C378.556 123.333 386.138 108.701 397.073 100.004C408.004 91.3069 422.127 87.3302 436.029 87.1373C446.585 86.9892 456.164 88.2943 464.789 94.462Z" fill="white" style="fill:white;fill-opacity:1;"/>
</mask>
<g mask="url(#mask75_566_15338)">
<path d="M502.97 290.719C502.274 302.582 506.927 314.663 515.376 322.918" stroke="#4D6C85" style="stroke:#4D6C85;stroke:color(display-p3 0.3020 0.4235 0.5216);stroke-opacity:1;" stroke-miterlimit="10" stroke-linecap="round" stroke-linejoin="round"/>
<path d="M601.037 301.557C603.942 290.677 604.133 277.4 601.545 266.439" stroke="#4D6C85" style="stroke:#4D6C85;stroke:color(display-p3 0.3020 0.4235 0.5216);stroke-opacity:1;" stroke-miterlimit="10" stroke-linecap="round" stroke-linejoin="round"/>
<path d="M577.833 156.07C589.571 154.919 601.728 160.539 608.554 170.27C615.379 180.001 615.691 191.705 610.749 202.539C620.026 210.457 626.581 222.96 626.131 235.231C625.775 244.914 620.863 254.251 613.35 260.257C605.837 266.262 595.894 268.934 586.376 267.872C577.817 266.916 569.036 262.411 565.64 254.402" stroke="#4D6C85" style="stroke:#4D6C85;stroke:color(display-p3 0.3020 0.4235 0.5216);stroke-opacity:1;" stroke-miterlimit="10" stroke-linecap="round" stroke-linejoin="round"/>
<path d="M462.042 90.9297C473.882 95.6163 482.93 106.155 487.688 118.085" stroke="#4D6C85" style="stroke:#4D6C85;stroke:color(display-p3 0.3020 0.4235 0.5216);stroke-opacity:1;" stroke-miterlimit="10" stroke-linecap="round" stroke-linejoin="round"/>
<path d="M376.687 133.695C376.687 140.836 384.692 150.049 390.159 153.543C403.252 161.913 415.718 160.842 428.743 156.793C428.318 164.671 429.803 171.803 434.362 177.046" stroke="#4D6C85" style="stroke:#4D6C85;stroke:color(display-p3 0.3020 0.4235 0.5216);stroke-opacity:1;" stroke-miterlimit="10" stroke-linecap="round" stroke-linejoin="round"/>
<path d="M299.4 221.636C302.316 214.884 308.741 210.371 315.511 207.663C323.303 204.547 331.99 204.932 338.442 206.414" stroke="#4D6C85" style="stroke:#4D6C85;stroke:color(display-p3 0.3020 0.4235 0.5216);stroke-opacity:1;" stroke-miterlimit="10" stroke-linecap="round" stroke-linejoin="round"/>
<path d="M338.332 184.867C334.588 195.819 337.114 208.725 344.699 217.408" stroke="#4D6C85" style="stroke:#4D6C85;stroke:color(display-p3 0.3020 0.4235 0.5216);stroke-opacity:1;" stroke-miterlimit="10" stroke-linecap="round" stroke-linejoin="round"/>
<path d="M348.766 304.389C364.751 301.608 378.349 288.055 381.339 271.921C389.664 272.586 398.679 268.794 404.748 262.987C410.817 257.18 414.308 248.712 414.12 240.264" stroke="#4D6C85" style="stroke:#4D6C85;stroke:color(display-p3 0.3020 0.4235 0.5216);stroke-opacity:1;" stroke-miterlimit="10" stroke-linecap="round" stroke-linejoin="round"/>
<path d="M391.716 210.014C389.714 220.971 395.592 232.921 405.436 237.912C415.282 242.904 428.257 240.506 435.726 232.32C437.233 244.53 445.674 255.373 457.329 259.314C468.983 263.257 482.466 261.15 492.401 253.831" stroke="#4D6C85" style="stroke:#4D6C85;stroke:color(display-p3 0.3020 0.4235 0.5216);stroke-opacity:1;" stroke-miterlimit="10" stroke-linecap="round" stroke-linejoin="round"/>
<path d="M560.51 92.5898C565.093 102.586 565.593 114.016 563.702 124.871" stroke="#4D6C85" style="stroke:#4D6C85;stroke:color(display-p3 0.3020 0.4235 0.5216);stroke-opacity:1;" stroke-miterlimit="10" stroke-linecap="round" stroke-linejoin="round"/>
<path d="M676.969 225.585C681.301 218.07 688.309 211.76 696.38 208.764C704.45 205.768 713.524 205.536 721.951 207.252" stroke="#4D6C85" style="stroke:#4D6C85;stroke:color(display-p3 0.3020 0.4235 0.5216);stroke-opacity:1;" stroke-miterlimit="10" stroke-linecap="round" stroke-linejoin="round"/>
</g>
<path d="M1.65892 362.358H290.198C290.203 357.789 288.549 351.786 286.299 347.826C276.337 330.304 254.792 320.397 235.199 324.326C234.205 307.29 227.415 290.143 213.712 280.199C200.008 270.259 181.23 267.548 165.651 274.079C151.71 256.998 127.904 248.461 106.737 254.117C85.5727 259.773 68.4453 278.626 64.6488 300.446C48.0709 290.989 25.6863 295.623 12.1678 309.177C-1.35348 322.736 -1.43631 343.355 1.65892 362.358Z" fill="#F4EBDC" style="fill:#F4EBDC;fill:color(display-p3 0.9569 0.9216 0.8627);fill-opacity:1;"/>
<path d="M234.276 75.2622V38.1328H207.435V75.2622H170.751V102.432H207.435V139.564H234.276V102.432H270.964V75.2622H234.276Z" fill="#CC4F1E" style="fill:#CC4F1E;fill:color(display-p3 0.8000 0.3098 0.1176);fill-opacity:1;"/>
<path d="M161.946 141.849C191.407 174.92 241.776 177.559 274.451 147.74C307.126 117.921 309.733 66.9418 280.272 33.8702C250.81 0.798574 200.442 -1.83956 167.766 27.9791" stroke="#F4EBDC" style="stroke:#F4EBDC;stroke:color(display-p3 0.9569 0.9216 0.8627);stroke-opacity:1;" stroke-width="2.2" stroke-miterlimit="10" stroke-linecap="round" stroke-linejoin="round"/>
<path d="M164.008 161.645C163.02 156 161.786 147.635 161.264 141.926C166.803 141.191 175.92 140.272 181.506 140.425" stroke="#F4EBDC" style="stroke:#F4EBDC;stroke:color(display-p3 0.9569 0.9216 0.8627);stroke-opacity:1;" stroke-width="2.2" stroke-miterlimit="10" stroke-linecap="round" stroke-linejoin="round"/>
<path d="M459.016 20.261V0H444.369V20.261H424.353V35.0837H444.369V55.3447H459.016V35.0837H479.032V20.261H459.016Z" fill="#F4EBDC" style="fill:#F4EBDC;fill:color(display-p3 0.9569 0.9216 0.8627);fill-opacity:1;"/>
<path d="M489.914 521.886V410.059C489.914 373.653 460.483 343.865 424.513 343.865C388.544 343.865 359.113 373.653 359.113 410.059V521.886H489.914Z" stroke="#E1B8A4" style="stroke:#E1B8A4;stroke:color(display-p3 0.8824 0.7216 0.6431);stroke-opacity:1;" stroke-miterlimit="10"/>
<path d="M424.514 343.865C424.514 343.865 383.124 345.679 383.124 388.839C383.124 431.999 383.124 521.883 383.124 521.883" stroke="#E1B8A4" style="stroke:#E1B8A4;stroke:color(display-p3 0.8824 0.7216 0.6431);stroke-opacity:1;" stroke-miterlimit="10"/>
<path d="M422.901 343.865C422.901 343.865 409.642 344.952 409.642 362.726V521.886" stroke="#E1B8A4" style="stroke:#E1B8A4;stroke:color(display-p3 0.8824 0.7216 0.6431);stroke-opacity:1;" stroke-miterlimit="10"/>
<path d="M423.528 343.865C423.528 343.865 464.918 345.679 464.918 388.839C464.918 431.999 464.918 521.883 464.918 521.883" stroke="#E1B8A4" style="stroke:#E1B8A4;stroke:color(display-p3 0.8824 0.7216 0.6431);stroke-opacity:1;" stroke-miterlimit="10"/>
<path d="M425.14 343.865C425.14 343.865 438.399 344.952 438.399 362.726V521.886" stroke="#E1B8A4" style="stroke:#E1B8A4;stroke:color(display-p3 0.8824 0.7216 0.6431);stroke-opacity:1;" stroke-miterlimit="10"/>
<path d="M430.019 337.297C430.019 333.667 427.112 330.727 423.528 330.727C419.944 330.727 417.036 333.669 417.036 337.297C417.036 340.927 419.944 343.867 423.528 343.867C427.115 343.867 430.019 340.927 430.019 337.297Z" stroke="#E1B8A4" style="stroke:#E1B8A4;stroke:color(display-p3 0.8824 0.7216 0.6431);stroke-opacity:1;" stroke-miterlimit="10"/>
<path d="M550.46 320.602L527.073 365.894H568.369L552.2 419.227L603.764 352.231H572.135L590.331 320.602H550.46Z" fill="#E1B8A4" style="fill:#E1B8A4;fill:color(display-p3 0.8824 0.7216 0.6431);fill-opacity:1;"/>
<path d="M277.88 429.562C277.883 429.422 277.903 429.288 277.903 429.148C277.903 415.197 266.27 403.885 251.92 403.885C237.571 403.885 225.938 415.195 225.938 429.148C225.938 415.197 214.305 403.885 199.956 403.885C185.606 403.885 173.973 415.195 173.973 429.148C173.973 429.148 168.78 464.042 225.908 501.699C279.717 466.227 278.234 433.846 277.88 429.562Z" fill="#CC4F1E" style="fill:#CC4F1E;fill:color(display-p3 0.8000 0.3098 0.1176);fill-opacity:1;"/>
<path d="M309.432 520.558C309.432 520.488 309.443 520.418 309.443 520.348C309.443 513.258 303.531 507.51 296.239 507.51C288.947 507.51 283.035 513.258 283.035 520.348C283.035 513.258 277.124 507.51 269.831 507.51C262.539 507.51 256.628 513.258 256.628 520.348C256.628 520.348 253.988 538.08 283.021 557.218C310.362 539.192 309.611 522.735 309.432 520.558Z" fill="#E1B8A4" style="fill:#E1B8A4;fill:color(display-p3 0.8824 0.7216 0.6431);fill-opacity:1;"/>
<path d="M555.88 230.943L555.869 222.752L551.736 220.385C551.172 215.936 550.043 211.669 548.403 207.675L550.965 203.824L546.964 196.737L542.235 196.81C539.622 193.316 536.566 190.195 533.15 187.532L533.496 182.865L526.576 178.779L522.528 181.258C518.627 179.595 514.466 178.455 510.128 177.898L508.151 173.676L500.169 173.687L497.863 177.929C493.528 178.508 489.37 179.667 485.477 181.35L481.724 178.72L474.816 182.825L474.885 187.68C471.483 190.36 468.438 193.495 465.842 197L461.295 196.648L457.313 203.746L459.729 207.899C458.108 211.901 456.995 216.171 456.454 220.623L452.337 222.652L452.348 230.843L456.485 233.21C457.048 237.659 458.177 241.926 459.817 245.92L457.255 249.768L461.256 256.858L465.986 256.785C468.598 260.276 471.654 263.4 475.07 266.063L474.725 270.73L481.644 274.816L485.689 272.337C489.591 274 493.752 275.14 498.089 275.696L500.066 279.919L508.049 279.908L510.354 275.666C514.692 275.087 518.848 273.927 522.741 272.245L526.493 274.875L533.402 270.769L533.333 265.915C536.734 263.235 539.777 260.1 542.375 256.595L546.923 256.947L550.904 249.849L548.488 245.696C550.109 241.694 551.219 237.424 551.763 232.972L555.88 230.943ZM504.109 253.756C489.599 253.756 477.837 241.686 477.837 226.796C477.837 211.906 489.599 199.836 504.109 199.836C518.619 199.836 530.384 211.906 530.384 226.796C530.384 241.686 518.621 253.756 504.109 253.756Z" fill="#F4EBDC" style="fill:#F4EBDC;fill:color(display-p3 0.9569 0.9216 0.8627);fill-opacity:1;"/>
<path d="M345.398 599.018C366.143 593.074 361.211 650.093 361.211 650.093C361.211 650.093 325.01 606.12 345.398 599.018Z" fill="#F4EBDC" style="fill:#F4EBDC;fill:color(display-p3 0.9569 0.9216 0.8627);fill-opacity:1;"/>
<path d="M318.755 618.18C332.086 601.03 361.211 650.095 361.211 650.095C361.211 650.095 306.386 636.052 318.755 618.18Z" fill="#F4EBDC" style="fill:#F4EBDC;fill:color(display-p3 0.9569 0.9216 0.8627);fill-opacity:1;"/>
<path d="M308.33 649.533C309.155 627.726 361.208 650.094 361.208 650.094C361.208 650.094 308.703 671.35 308.33 649.533Z" fill="#F4EBDC" style="fill:#F4EBDC;fill:color(display-p3 0.9569 0.9216 0.8627);fill-opacity:1;"/>
<path d="M318.104 681.095C306.107 662.964 361.211 650.092 361.211 650.092C361.211 650.092 331.076 698.525 318.104 681.095Z" fill="#F4EBDC" style="fill:#F4EBDC;fill:color(display-p3 0.9569 0.9216 0.8627);fill-opacity:1;"/>
<path d="M344.341 700.82C324.104 693.288 361.208 650.092 361.208 650.092C361.208 650.092 364.958 707.203 344.341 700.82Z" fill="#F4EBDC" style="fill:#F4EBDC;fill:color(display-p3 0.9569 0.9216 0.8627);fill-opacity:1;"/>
<path d="M377.024 701.166C356.28 707.111 361.211 650.092 361.211 650.092C361.211 650.092 397.41 694.068 377.024 701.166Z" fill="#F4EBDC" style="fill:#F4EBDC;fill:color(display-p3 0.9569 0.9216 0.8627);fill-opacity:1;"/>
<path d="M403.664 682.006C390.333 699.157 361.211 650.092 361.211 650.092C361.211 650.092 416.034 664.132 403.664 682.006Z" fill="#F4EBDC" style="fill:#F4EBDC;fill:color(display-p3 0.9569 0.9216 0.8627);fill-opacity:1;"/>
<path d="M414.09 650.653C413.264 672.46 361.211 650.091 361.211 650.091C361.211 650.091 413.717 628.835 414.09 650.653Z" fill="#F4EBDC" style="fill:#F4EBDC;fill:color(display-p3 0.9569 0.9216 0.8627);fill-opacity:1;"/>
<path d="M404.318 619.087C416.315 637.219 361.211 650.091 361.211 650.091C361.211 650.091 391.346 601.657 404.318 619.087Z" fill="#F4EBDC" style="fill:#F4EBDC;fill:color(display-p3 0.9569 0.9216 0.8627);fill-opacity:1;"/>
<path d="M378.079 599.365C398.315 606.896 361.211 650.093 361.211 650.093C361.211 650.093 357.462 592.982 378.079 599.365Z" fill="#F4EBDC" style="fill:#F4EBDC;fill:color(display-p3 0.9569 0.9216 0.8627);fill-opacity:1;"/>
<path d="M372.4 650.089C372.4 643.835 367.391 638.766 361.212 638.766C355.032 638.766 350.023 643.835 350.023 650.089C350.023 656.344 355.032 661.413 361.212 661.413C367.391 661.413 372.4 656.344 372.4 650.089Z" fill="#CC4F1E" style="fill:#CC4F1E;fill:color(display-p3 0.8000 0.3098 0.1176);fill-opacity:1;"/>
</svg>
