<svg width="236" height="91" viewBox="0 0 236 91" fill="none" xmlns="http://www.w3.org/2000/svg">
<path d="M119.978 14.5104H101.478C101.478 14.5104 101.477 66.517 101.478 79.5105C101.478 92.5039 83.4783 92.5039 83.4779 79.5105C83.4774 66.517 83.4779 38.0104 83.4779 38.0104H65.9778C95.9918 71.7075 26.243 95.5583 12.9778 31.0105C14.3209 23.5198 19.3697 22.5329 27.4778 25.5104C31.893 45.5374 43.1016 55.5801 47.478 57.1974C56.4323 57.3193 61.5067 47.7986 43.978 35.0104C41.5289 28.9949 41.4164 26.2119 48.478 24.5104H83.1883V14.5104C83.1883 14.5104 24.1975 14.6023 10.478 14.5104C-3.24161 14.4185 -3.74146 -0.0837376 10.478 0.0104428C24.6974 0.104623 217.285 -0.0382824 227.478 0.0104428C237.671 0.059168 239.978 14.5104 227.478 14.5104H215.478V79.5105C215.478 94.5039 197.478 94.5039 197.478 79.5105V65.5105C197.478 65.5105 181.978 76.517 170.978 83.5105C159.978 90.5039 152.978 77.0039 161.478 72.0105C169.978 67.017 197.478 51.0104 197.478 51.0104V14.5104H178.478V48.0104C176.411 62.5225 158.043 56.6717 153.978 48.0104C150.802 41.2449 151.208 30.7798 160.478 30.0105V14.5104H137.978C137.978 14.5104 137.478 66.517 137.478 79.5105C137.478 92.5039 119.978 92.5039 119.978 79.5105V14.5104Z" fill="white"/>
</svg>
