<svg width="345" height="117" viewBox="0 0 345 117" fill="none" xmlns="http://www.w3.org/2000/svg">
<path d="M171.978 34.5104H153.478C153.478 34.5104 153.477 86.517 153.478 99.5105C153.478 112.504 135.478 112.504 135.478 99.5105C135.477 86.517 135.478 58.0104 135.478 58.0104H117.978C147.992 91.7075 78.243 115.558 64.9778 51.0105C66.3209 43.5198 71.3697 42.5329 79.4778 45.5104C83.893 65.5374 95.1016 75.5801 99.478 77.1974C108.432 77.3193 113.507 67.7986 95.978 55.0104C93.5289 48.9949 93.4164 46.2119 100.478 44.5104H135.188V34.5104C135.188 34.5104 76.1975 34.6023 62.478 34.5104C48.7584 34.4185 48.2585 19.9163 62.478 20.0104C76.6974 20.1046 269.285 19.9617 279.478 20.0104C289.671 20.0592 291.978 34.5104 279.478 34.5104H267.478V99.5105C267.478 114.504 249.478 114.504 249.478 99.5105V85.5105C249.478 85.5105 233.978 96.517 222.978 103.51C211.978 110.504 204.978 97.0039 213.478 92.0105C221.978 87.017 249.478 71.0104 249.478 71.0104V34.5104H230.478V68.0104C228.411 82.5225 210.043 76.6717 205.978 68.0104C202.802 61.2449 203.208 50.7798 212.478 50.0105V34.5104H189.978C189.978 34.5104 189.478 86.517 189.478 99.5105C189.478 112.504 171.978 112.504 171.978 99.5105V34.5104Z" fill="#7E22CE"/>
<path d="M4.72727 58.9091V53.2727C9.78788 53.2727 13.3182 52.2121 15.3182 50.0909C17.3485 47.9697 18.3636 44.4242 18.3636 39.4545V24.9091C18.3636 20.7273 18.7576 17.1061 19.5455 14.0454C20.3636 10.9848 21.6818 8.45454 23.5 6.45454C25.3182 4.45454 27.7424 2.9697 30.7727 2C33.803 1.0303 37.5455 0.545448 42 0.545448V9.45454C38.4848 9.45454 35.7121 10 33.6818 11.0909C31.6818 12.1818 30.2576 13.8788 29.4091 16.1818C28.5909 18.4545 28.1818 21.3636 28.1818 24.9091V43.0909C28.1818 45.4545 27.8636 47.6061 27.2273 49.5455C26.6212 51.4848 25.4848 53.1515 23.8182 54.5455C22.1515 55.9394 19.7727 57.0152 16.6818 57.7727C13.6212 58.5303 9.63636 58.9091 4.72727 58.9091ZM42 116.909C37.5455 116.909 33.803 116.424 30.7727 115.455C27.7424 114.485 25.3182 113 23.5 111C21.6818 109 20.3636 106.47 19.5455 103.409C18.7576 100.348 18.3636 96.7273 18.3636 92.5455V78C18.3636 73.0303 17.3485 69.4848 15.3182 67.3636C13.3182 65.2424 9.78788 64.1818 4.72727 64.1818V58.5455C9.63636 58.5455 13.6212 58.9242 16.6818 59.6818C19.7727 60.4394 22.1515 61.5151 23.8182 62.9091C25.4848 64.303 26.6212 65.9697 27.2273 67.9091C27.8636 69.8485 28.1818 72 28.1818 74.3636V92.5455C28.1818 96.0909 28.5909 99 29.4091 101.273C30.2576 103.545 31.6818 105.227 33.6818 106.318C35.7121 107.439 38.4848 108 42 108V116.909ZM4.72727 64.1818V53.2727H15.4545V64.1818H4.72727Z" fill="#7E22CE"/>
<path d="M339.636 58.5455V64.1818C334.576 64.1818 331.03 65.2424 329 67.3636C327 69.4848 326 73.0303 326 78V92.5455C326 96.7273 325.591 100.348 324.773 103.409C323.985 106.47 322.682 109 320.864 111C319.045 113 316.621 114.485 313.591 115.455C310.561 116.424 306.818 116.909 302.364 116.909V108C305.879 108 308.636 107.439 310.636 106.318C312.667 105.227 314.091 103.545 314.909 101.273C315.758 99 316.182 96.0909 316.182 92.5455V74.3636C316.182 72 316.485 69.8485 317.091 67.9091C317.727 65.9697 318.879 64.303 320.545 62.9091C322.212 61.5151 324.576 60.4394 327.636 59.6818C330.727 58.9242 334.727 58.5455 339.636 58.5455ZM302.364 0.545448C306.818 0.545448 310.561 1.0303 313.591 2C316.621 2.9697 319.045 4.45454 320.864 6.45454C322.682 8.45454 323.985 10.9848 324.773 14.0454C325.591 17.1061 326 20.7273 326 24.9091V39.4545C326 44.4242 327 47.9697 329 50.0909C331.03 52.2121 334.576 53.2727 339.636 53.2727V58.9091C334.727 58.9091 330.727 58.5303 327.636 57.7727C324.576 57.0152 322.212 55.9394 320.545 54.5455C318.879 53.1515 317.727 51.4848 317.091 49.5455C316.485 47.6061 316.182 45.4545 316.182 43.0909V24.9091C316.182 21.3636 315.758 18.4545 314.909 16.1818C314.091 13.8788 312.667 12.1818 310.636 11.0909C308.636 10 305.879 9.45454 302.364 9.45454V0.545448ZM339.636 53.2727V64.1818H328.909V53.2727H339.636Z" fill="#7E22CE"/>
</svg>
