<svg width="345" height="117" viewBox="0 0 345 117" fill="none" xmlns="http://www.w3.org/2000/svg">
<path d="M171.978 34.5104H153.478C153.478 34.5104 153.477 86.517 153.478 99.5105C153.478 112.504 135.478 112.504 135.478 99.5105C135.477 86.517 135.478 58.0104 135.478 58.0104H117.978C147.992 91.7075 78.243 115.558 64.9778 51.0105C66.3209 43.5198 71.3697 42.5329 79.4778 45.5104C83.893 65.5374 95.1016 75.5801 99.478 77.1974C108.432 77.3193 113.507 67.7986 95.978 55.0104C93.5289 48.9949 93.4164 46.2119 100.478 44.5104H135.188V34.5104C135.188 34.5104 76.1975 34.6023 62.478 34.5104C48.7584 34.4185 48.2585 19.9163 62.478 20.0104C76.6974 20.1046 269.285 19.9617 279.478 20.0104C289.671 20.0592 291.978 34.5104 279.478 34.5104H267.478V99.5105C267.478 114.504 249.478 114.504 249.478 99.5105V85.5105C249.478 85.5105 233.978 96.517 222.978 103.51C211.978 110.504 204.978 97.0039 213.478 92.0105C221.978 87.017 249.478 71.0104 249.478 71.0104V34.5104H230.478V68.0104C228.411 82.5225 210.043 76.6717 205.978 68.0104C202.802 61.2449 203.208 50.7798 212.478 50.0105V34.5104H189.978C189.978 34.5104 189.478 86.517 189.478 99.5105C189.478 112.504 171.978 112.504 171.978 99.5105V34.5104Z" fill="#F76808"/>
<path d="M13.6364 58.7273C13.6364 47.2727 15.1212 36.7424 18.0909 27.1364C21.0909 17.5 25.3636 8.63636 30.9091 0.545448H40.3636C38.1818 3.54545 36.1364 7.24242 34.2273 11.6364C32.3485 16 30.697 20.803 29.2727 26.0455C27.8485 31.2576 26.7273 36.6515 25.9091 42.2273C25.1212 47.803 24.7273 53.303 24.7273 58.7273C24.7273 65.9394 25.4242 73.2576 26.8182 80.6818C28.2121 88.1061 30.0909 95 32.4545 101.364C34.8182 107.727 37.4545 112.909 40.3636 116.909H30.9091C25.3636 108.818 21.0909 99.9697 18.0909 90.3636C15.1212 80.7273 13.6364 70.1818 13.6364 58.7273Z" fill="#F76708"/>
<path d="M330.727 58.7273C330.727 70.1818 329.227 80.7273 326.227 90.3636C323.258 99.9697 319 108.818 313.455 116.909H304C306.182 113.909 308.212 110.212 310.091 105.818C312 101.455 313.667 96.6667 315.091 91.4545C316.515 86.2121 317.621 80.803 318.409 75.2273C319.227 69.6212 319.636 64.1212 319.636 58.7273C319.636 51.5151 318.939 44.197 317.545 36.7727C316.152 29.3485 314.273 22.4545 311.909 16.0909C309.545 9.72727 306.909 4.54545 304 0.545448H313.455C319 8.63636 323.258 17.5 326.227 27.1364C329.227 36.7424 330.727 47.2727 330.727 58.7273Z" fill="#F76708"/>
</svg>
