<svg width="300" height="200" viewBox="0 0 300 200" fill="none" xmlns="http://www.w3.org/2000/svg">
<rect width="300" height="200" fill="white"/>
<path d="M151.147 76.8741H135.705C135.705 76.8741 135.704 115.848 135.705 125.585C135.705 135.322 120.68 135.322 120.68 125.585C120.68 115.848 120.68 94.4849 120.68 94.4849H106.072C131.125 119.737 72.9053 137.611 61.8327 89.2391C62.9538 83.6257 67.1681 82.8861 73.9361 85.1174C77.6214 100.126 86.9774 107.652 90.6304 108.864C98.1047 108.955 102.34 101.82 87.7089 92.2367C85.6647 87.7286 85.5708 85.6431 91.4651 84.368H120.438V76.8741C120.438 76.8741 71.198 76.9429 59.7461 76.8741C48.2942 76.8052 47.877 65.9372 59.7461 66.0078C71.6152 66.0784 232.37 65.9713 240.878 66.0078C249.386 66.0443 251.313 76.8741 240.878 76.8741H230.862V125.585C230.862 136.821 215.837 136.821 215.837 125.585V115.093C215.837 115.093 202.899 123.342 193.717 128.582C184.536 133.823 178.693 123.706 185.787 119.964C192.882 116.222 215.837 104.227 215.837 104.227V76.8741H199.978V101.979C198.252 112.854 182.92 108.47 179.527 101.979C176.876 96.9088 177.215 89.0663 184.953 88.4897V76.8741H166.172C166.172 76.8741 165.754 115.848 165.754 125.585C165.754 135.322 151.147 135.322 151.147 125.585V76.8741Z" fill="#7E22CE"/>
</svg>
